<svg xmlns="http://www.w3.org/2000/svg" xmlns:xlink="http://www.w3.org/1999/xlink" contentStyleType="text/css" height="944.7917px" preserveAspectRatio="none" style="width:1627px;height:944px;background:#FFFFFF;" version="1.1" viewBox="0 0 1627 944" width="1627.0833px" zoomAndPan="magnify"><title>Dynamic view &#8212; one release, end to end (who does what, in order)</title><defs/><g><text fill="#000000" font-family="Arial" font-size="18.75" font-weight="bold" lengthAdjust="spacing" textLength="593.8751" x="516.0675" y="51.0234">Dynamic view &#8212; one release, end to end (who does what, in order)</text><rect fill="#FFFFFF" height="547.9436" style="stroke:#0F766E;stroke-width:1.0416666666666667;" width="10.4167" x="373.1628" y="262.2803"/><rect fill="#FFFFFF" height="150.7746" style="stroke:#0F766E;stroke-width:1.0416666666666667;" width="10.4167" x="1076.2115" y="517.008"/><line style="stroke:#0F766E;stroke-width:0.5208333333333334;stroke-dasharray:5.0,5.0;" x1="65.625" x2="65.625" y1="162.4939" y2="828.9739"/><line style="stroke:#0F766E;stroke-width:0.5208333333333334;stroke-dasharray:5.0,5.0;" x1="378.1326" x2="378.1326" y1="162.4939" y2="828.9739"/><line style="stroke:#0F766E;stroke-width:0.5208333333333334;stroke-dasharray:5.0,5.0;" x1="638.446" x2="638.446" y1="162.4939" y2="828.9739"/><line style="stroke:#0F766E;stroke-width:0.5208333333333334;stroke-dasharray:5.0,5.0;" x1="772.6084" x2="772.6084" y1="162.4939" y2="828.9739"/><line style="stroke:#0F766E;stroke-width:0.5208333333333334;stroke-dasharray:5.0,5.0;" x1="1081.1111" x2="1081.1111" y1="162.4939" y2="828.9739"/><line style="stroke:#0F766E;stroke-width:0.5208333333333334;stroke-dasharray:5.0,5.0;" x1="1277.2186" x2="1277.2186" y1="162.4939" y2="828.9739"/><line style="stroke:#0F766E;stroke-width:0.5208333333333334;stroke-dasharray:5.0,5.0;" x1="1422.7854" x2="1422.7854" y1="162.4939" y2="828.9739"/><line style="stroke:#0F766E;stroke-width:0.5208333333333334;stroke-dasharray:5.0,5.0;" x1="1553.1586" x2="1553.1586" y1="162.4939" y2="828.9739"/><text fill="#000000" font-family="Arial" font-size="14.5833" lengthAdjust="spacing" textLength="74.5758" x="25.4776" y="142.6341">Developer /</text><text fill="#000000" font-family="Arial" font-size="14.5833" lengthAdjust="spacing" textLength="115.1143" x="5.2083" y="159.4035">Release Manager</text><ellipse cx="65.8905" cy="75.3092" fill="#E2E2F0" rx="8.3333" ry="8.3333" style="stroke:#181818;stroke-width:0.5208333333333334;"/><path d="M65.8905,83.6426 L65.8905,111.7676 M52.3488,91.9759 L79.4322,91.9759 M65.8905,111.7676 L52.3488,127.3926 M65.8905,111.7676 L79.4322,127.3926 " fill="none" style="stroke:#181818;stroke-width:0.5208333333333334;"/><text fill="#000000" font-family="Arial" font-size="14.5833" lengthAdjust="spacing" textLength="74.5758" x="25.4776" y="841.6112">Developer /</text><text fill="#000000" font-family="Arial" font-size="14.5833" lengthAdjust="spacing" textLength="115.1143" x="5.2083" y="858.3806">Release Manager</text><ellipse cx="65.8905" cy="870.3252" fill="#E2E2F0" rx="8.3333" ry="8.3333" style="stroke:#181818;stroke-width:0.5208333333333334;"/><path d="M65.8905,878.6585 L65.8905,906.7835 M52.3488,886.9919 L79.4322,886.9919 M65.8905,906.7835 L52.3488,922.4085 M65.8905,906.7835 L79.4322,922.4085 " fill="none" style="stroke:#181818;stroke-width:0.5208333333333334;"/><rect fill="#E2E2F0" height="48.1222" rx="2.6042" ry="2.6042" style="stroke:#181818;stroke-width:0.5208333333333334;" width="160.8938" x="297.9243" y="113.3301"/><text fill="#000000" font-family="Arial" font-size="14.5833" lengthAdjust="spacing" textLength="103.7567" x="326.4928" y="134.3007">Octopus Deploy</text><text fill="#000000" font-family="Arial" font-size="14.5833" lengthAdjust="spacing" textLength="146.3104" x="305.216" y="151.0701">(orchestration + gates)</text><rect fill="#E2E2F0" height="48.1222" rx="2.6042" ry="2.6042" style="stroke:#181818;stroke-width:0.5208333333333334;" width="160.8938" x="297.9243" y="827.9322"/><text fill="#000000" font-family="Arial" font-size="14.5833" lengthAdjust="spacing" textLength="103.7567" x="326.4928" y="848.9029">Octopus Deploy</text><text fill="#000000" font-family="Arial" font-size="14.5833" lengthAdjust="spacing" textLength="146.3104" x="305.216" y="865.6723">(orchestration + gates)</text><text fill="#000000" font-family="Arial" font-size="14.5833" lengthAdjust="spacing" textLength="71.3287" x="600.0712" y="142.6341">Azure SQL</text><text fill="#000000" font-family="Arial" font-size="14.5833" lengthAdjust="spacing" textLength="134.1624" x="568.6544" y="159.4035">(app data + schema)</text><path d="M620.1106,91.4551 C620.1106,81.0384 638.8606,81.0384 638.8606,81.0384 C638.8606,81.0384 657.6106,81.0384 657.6106,91.4551 L657.6106,118.5384 C657.6106,128.9551 638.8606,128.9551 638.8606,128.9551 C638.8606,128.9551 620.1106,128.9551 620.1106,118.5384 L620.1106,91.4551 " fill="#E2E2F0" style="stroke:#181818;stroke-width:1.5625;"/><path d="M620.1106,91.4551 C620.1106,101.8717 638.8606,101.8717 638.8606,101.8717 C638.8606,101.8717 657.6106,101.8717 657.6106,91.4551 " fill="none" style="stroke:#181818;stroke-width:1.5625;"/><text fill="#000000" font-family="Arial" font-size="14.5833" lengthAdjust="spacing" textLength="71.3287" x="600.0712" y="841.6112">Azure SQL</text><text fill="#000000" font-family="Arial" font-size="14.5833" lengthAdjust="spacing" textLength="134.1624" x="568.6544" y="858.3806">(app data + schema)</text><path d="M620.1106,871.8877 C620.1106,861.471 638.8606,861.471 638.8606,861.471 C638.8606,861.471 657.6106,861.471 657.6106,871.8877 L657.6106,898.971 C657.6106,909.3877 638.8606,909.3877 638.8606,909.3877 C638.8606,909.3877 620.1106,909.3877 620.1106,898.971 L620.1106,871.8877 " fill="#E2E2F0" style="stroke:#181818;stroke-width:1.5625;"/><path d="M620.1106,871.8877 C620.1106,882.3044 638.8606,882.3044 638.8606,882.3044 C638.8606,882.3044 657.6106,882.3044 657.6106,871.8877 " fill="none" style="stroke:#181818;stroke-width:1.5625;"/><rect fill="#E2E2F0" height="48.1222" rx="2.6042" ry="2.6042" style="stroke:#181818;stroke-width:0.5208333333333334;" width="107.7942" x="719.4834" y="113.3301"/><text fill="#000000" font-family="Arial" font-size="14.5833" lengthAdjust="spacing" textLength="57.55" x="744.6055" y="134.3007">Git Repo</text><text fill="#000000" font-family="Arial" font-size="14.5833" lengthAdjust="spacing" textLength="93.2109" x="726.7751" y="151.0701">(desired state)</text><rect fill="#E2E2F0" height="48.1222" rx="2.6042" ry="2.6042" style="stroke:#181818;stroke-width:0.5208333333333334;" width="107.7942" x="719.4834" y="827.9322"/><text fill="#000000" font-family="Arial" font-size="14.5833" lengthAdjust="spacing" textLength="57.55" x="744.6055" y="848.9029">Git Repo</text><text fill="#000000" font-family="Arial" font-size="14.5833" lengthAdjust="spacing" textLength="93.2109" x="726.7751" y="865.6723">(desired state)</text><rect fill="#E2E2F0" height="48.1222" rx="2.6042" ry="2.6042" style="stroke:#181818;stroke-width:0.5208333333333334;" width="140.2008" x="1011.3195" y="113.3301"/><text fill="#000000" font-family="Arial" font-size="14.5833" lengthAdjust="spacing" textLength="114.2741" x="1024.2828" y="134.3007">Argo CD Runtime</text><text fill="#000000" font-family="Arial" font-size="14.5833" lengthAdjust="spacing" textLength="125.6175" x="1018.6111" y="151.0701">(in AKS, reconciler)</text><rect fill="#E2E2F0" height="48.1222" rx="2.6042" ry="2.6042" style="stroke:#181818;stroke-width:0.5208333333333334;" width="140.2008" x="1011.3195" y="827.9322"/><text fill="#000000" font-family="Arial" font-size="14.5833" lengthAdjust="spacing" textLength="114.2741" x="1024.2828" y="848.9029">Argo CD Runtime</text><text fill="#000000" font-family="Arial" font-size="14.5833" lengthAdjust="spacing" textLength="125.6175" x="1018.6111" y="865.6723">(in AKS, reconciler)</text><rect fill="#E2E2F0" height="48.1222" rx="2.6042" ry="2.6042" style="stroke:#181818;stroke-width:0.5208333333333334;" width="165.3585" x="1194.927" y="113.3301"/><text fill="#000000" font-family="Arial" font-size="14.5833" lengthAdjust="spacing" textLength="67.2841" x="1243.9641" y="134.3007">Codefresh</text><text fill="#000000" font-family="Arial" font-size="14.5833" lengthAdjust="spacing" textLength="150.7751" x="1202.2186" y="151.0701">(hosted Argo UI/health)</text><rect fill="#E2E2F0" height="48.1222" rx="2.6042" ry="2.6042" style="stroke:#181818;stroke-width:0.5208333333333334;" width="165.3585" x="1194.927" y="827.9322"/><text fill="#000000" font-family="Arial" font-size="14.5833" lengthAdjust="spacing" textLength="67.2841" x="1243.9641" y="848.9029">Codefresh</text><text fill="#000000" font-family="Arial" font-size="14.5833" lengthAdjust="spacing" textLength="150.7751" x="1202.2186" y="865.6723">(hosted Argo UI/health)</text><rect fill="#E2E2F0" height="48.1222" rx="2.6042" ry="2.6042" style="stroke:#181818;stroke-width:0.5208333333333334;" width="105.3731" x="1370.7021" y="113.3301"/><text fill="#000000" font-family="Arial" font-size="14.5833" lengthAdjust="spacing" textLength="79.425" x="1383.6761" y="134.3007">AKS Cluster</text><text fill="#000000" font-family="Arial" font-size="14.5833" lengthAdjust="spacing" textLength="90.7898" x="1377.9938" y="151.0701">(runs the app)</text><rect fill="#E2E2F0" height="48.1222" rx="2.6042" ry="2.6042" style="stroke:#181818;stroke-width:0.5208333333333334;" width="105.3731" x="1370.7021" y="827.9322"/><text fill="#000000" font-family="Arial" font-size="14.5833" lengthAdjust="spacing" textLength="79.425" x="1383.6761" y="848.9029">AKS Cluster</text><text fill="#000000" font-family="Arial" font-size="14.5833" lengthAdjust="spacing" textLength="90.7898" x="1377.9938" y="865.6723">(runs the app)</text><rect fill="#E2E2F0" height="48.1222" rx="2.6042" ry="2.6042" style="stroke:#181818;stroke-width:0.5208333333333334;" width="135.3516" x="1486.4919" y="113.3301"/><text fill="#000000" font-family="Arial" font-size="14.5833" lengthAdjust="spacing" textLength="120.7682" x="1493.7836" y="134.3007">Container Registry</text><text fill="#000000" font-family="Arial" font-size="14.5833" lengthAdjust="spacing" textLength="85.9049" x="1511.2152" y="151.0701">(image store)</text><rect fill="#E2E2F0" height="48.1222" rx="2.6042" ry="2.6042" style="stroke:#181818;stroke-width:0.5208333333333334;" width="135.3516" x="1486.4919" y="827.9322"/><text fill="#000000" font-family="Arial" font-size="14.5833" lengthAdjust="spacing" textLength="120.7682" x="1493.7836" y="848.9029">Container Registry</text><text fill="#000000" font-family="Arial" font-size="14.5833" lengthAdjust="spacing" textLength="85.9049" x="1511.2152" y="865.6723">(image store)</text><rect fill="#FFFFFF" height="547.9436" style="stroke:#0F766E;stroke-width:1.0416666666666667;" width="10.4167" x="373.1628" y="262.2803"/><rect fill="#FFFFFF" height="150.7746" style="stroke:#0F766E;stroke-width:1.0416666666666667;" width="10.4167" x="1076.2115" y="517.008"/><path d="M5.2083,178.1189 L5.2083,234.3689 L1615.625,234.3689 L1615.625,188.5356 L1605.2083,178.1189 L5.2083,178.1189 " fill="#FFFBEB" style="stroke:#F59E0B;stroke-width:0.5208333333333334;"/><path d="M1605.2083,178.1189 L1605.2083,188.5356 L1615.625,188.5356 L1605.2083,178.1189 " fill="#FFFBEB" style="stroke:#F59E0B;stroke-width:0.5208333333333334;"/><text fill="#000000" font-family="Arial" font-size="13.5417" lengthAdjust="spacing" textLength="431.5943" x="590.4371" y="196.0292">Responsibilities: Octopus decides WHEN/WHETHER + runs migrations.</text><text fill="#000000" font-family="Arial" font-size="13.5417" lengthAdjust="spacing" textLength="354.51" x="590.4371" y="211.6007">Git is the source of truth. Argo does the actual cluster sync.</text><text fill="#000000" font-family="Arial" font-size="13.5417" lengthAdjust="spacing" textLength="403.4597" x="590.4371" y="227.1723">Codefresh shows health. Nothing bypasses Git to touch the cluster.</text><polygon fill="#181818" points="360.6628,258.1136,371.0795,262.2803,360.6628,266.4469,364.8295,262.2803" style="stroke:#181818;stroke-width:1.0416666666666667;"/><line style="stroke:#181818;stroke-width:1.0416666666666667;" x1="65.8905" x2="366.9128" y1="262.2803" y2="262.2803"/><text fill="#000000" font-family="Arial" font-size="13.5417" lengthAdjust="spacing" textLength="277.0091" x="73.1822" y="257.3273">1. Create release, approve target environment</text><polygon fill="#181818" points="626.3606,288.2685,636.7772,292.4352,626.3606,296.6019,630.5272,292.4352" style="stroke:#181818;stroke-width:1.0416666666666667;"/><line style="stroke:#181818;stroke-width:1.0416666666666667;" x1="383.5795" x2="632.6106" y1="292.4352" y2="292.4352"/><text fill="#000000" font-family="Arial" font-size="13.5417" lengthAdjust="spacing" textLength="230.2811" x="390.8712" y="287.4822">2. Run DbUp migrations (schema first)</text><path d="M643.75,305.9769 L643.75,346.6019 L834.375,346.6019 L834.375,316.3935 L823.9583,305.9769 L643.75,305.9769 " fill="#FFFBEB" style="stroke:#F59E0B;stroke-width:0.5208333333333334;"/><path d="M823.9583,305.9769 L823.9583,316.3935 L834.375,316.3935 L823.9583,305.9769 " fill="#FFFBEB" style="stroke:#F59E0B;stroke-width:0.5208333333333334;"/><text fill="#000000" font-family="Arial" font-size="13.5417" lengthAdjust="spacing" textLength="169.3634" x="650" y="323.8871">Schema owned by Octopus,</text><text fill="#000000" font-family="Arial" font-size="13.5417" lengthAdjust="spacing" textLength="102.3361" x="650" y="339.4587">NOT by Argo CD</text><polygon fill="#181818" points="395.0378,370.4,384.6212,374.5667,395.0378,378.7333,390.8712,374.5667" style="stroke:#181818;stroke-width:1.0416666666666667;"/><line style="stroke:#181818;stroke-width:1.0416666666666667;stroke-dasharray:2.0,2.0;" x1="388.7878" x2="637.8189" y1="374.5667" y2="374.5667"/><text fill="#000000" font-family="Arial" font-size="13.5417" lengthAdjust="spacing" textLength="109.9004" x="401.2878" y="369.6136">migrations applied</text><polygon fill="#181818" points="760.8805,400.5549,771.2972,404.7216,760.8805,408.8882,765.0472,404.7216" style="stroke:#181818;stroke-width:1.0416666666666667;"/><line style="stroke:#181818;stroke-width:1.0416666666666667;" x1="383.5795" x2="767.1305" y1="404.7216" y2="404.7216"/><text fill="#000000" font-family="Arial" font-size="13.5417" lengthAdjust="spacing" textLength="302.5782" x="390.8712" y="399.7686">3. Commit new image tag into deploy/overlays/dev</text><path d="M778.125,418.2632 L778.125,458.8882 L985.4167,458.8882 L985.4167,428.6799 L975,418.2632 L778.125,418.2632 " fill="#FFFBEB" style="stroke:#F59E0B;stroke-width:0.5208333333333334;"/><path d="M975,418.2632 L975,428.6799 L985.4167,428.6799 L975,418.2632 " fill="#FFFBEB" style="stroke:#F59E0B;stroke-width:0.5208333333333334;"/><text fill="#000000" font-family="Arial" font-size="13.5417" lengthAdjust="spacing" textLength="185.8938" x="784.375" y="436.1735">This commit IS the deployment</text><text fill="#000000" font-family="Arial" font-size="13.5417" lengthAdjust="spacing" textLength="147.8872" x="784.375" y="451.7451">(history = deploy history)</text><polygon fill="#181818" points="395.0378,482.6864,384.6212,486.853,395.0378,491.0197,390.8712,486.853" style="stroke:#181818;stroke-width:1.0416666666666667;"/><line style="stroke:#181818;stroke-width:1.0416666666666667;stroke-dasharray:2.0,2.0;" x1="388.7878" x2="772.3389" y1="486.853" y2="486.853"/><text fill="#000000" font-family="Arial" font-size="13.5417" lengthAdjust="spacing" textLength="91.8228" x="401.2878" y="481.9">commit pushed</text><polygon fill="#181818" points="784.8389,512.8413,774.4222,517.008,784.8389,521.1746,780.6722,517.008" style="stroke:#181818;stroke-width:1.0416666666666667;"/><line style="stroke:#181818;stroke-width:1.0416666666666667;" x1="778.5889" x2="1075.1699" y1="517.008" y2="517.008"/><text fill="#000000" font-family="Arial" font-size="13.5417" lengthAdjust="spacing" textLength="283.0393" x="791.0889" y="512.055">4. Detect changed desired state (poll/webhook)</text><polygon fill="#181818" points="1541.6677,542.9962,1552.0844,547.1629,1541.6677,551.3295,1545.8344,547.1629" style="stroke:#181818;stroke-width:1.0416666666666667;"/><line style="stroke:#181818;stroke-width:1.0416666666666667;" x1="1086.6282" x2="1547.9177" y1="547.1629" y2="547.1629"/><text fill="#000000" font-family="Arial" font-size="13.5417" lengthAdjust="spacing" textLength="192.3274" x="1093.9199" y="542.2099">5. Resolve + pull the new image</text><polygon fill="#181818" points="1098.0865,573.1511,1087.6699,577.3178,1098.0865,581.4845,1093.9199,577.3178" style="stroke:#181818;stroke-width:1.0416666666666667;"/><line style="stroke:#181818;stroke-width:1.0416666666666667;stroke-dasharray:2.0,2.0;" x1="1091.8365" x2="1553.126" y1="577.3178" y2="577.3178"/><text fill="#000000" font-family="Arial" font-size="13.5417" lengthAdjust="spacing" textLength="74.5188" x="1104.3365" y="572.3648">image ready</text><polygon fill="#181818" points="1410.8887,603.3061,1421.3053,607.4727,1410.8887,611.6394,1415.0553,607.4727" style="stroke:#181818;stroke-width:1.0416666666666667;"/><line style="stroke:#181818;stroke-width:1.0416666666666667;" x1="1086.6282" x2="1417.1387" y1="607.4727" y2="607.4727"/><text fill="#000000" font-family="Arial" font-size="13.5417" lengthAdjust="spacing" textLength="286.0148" x="1093.9199" y="602.5197">6. Apply Deployment; roll pods (respect probes)</text><polygon fill="#181818" points="1098.0865,633.461,1087.6699,637.6277,1098.0865,641.7943,1093.9199,637.6277" style="stroke:#181818;stroke-width:1.0416666666666667;"/><line style="stroke:#181818;stroke-width:1.0416666666666667;stroke-dasharray:2.0,2.0;" x1="1091.8365" x2="1422.347" y1="637.6277" y2="637.6277"/><text fill="#000000" font-family="Arial" font-size="13.5417" lengthAdjust="spacing" textLength="178.422" x="1104.3365" y="632.6747">pods Ready on /_healthcheck</text><polygon fill="#181818" points="1265.1062,663.6159,1275.5229,667.7826,1265.1062,671.9493,1269.2729,667.7826" style="stroke:#181818;stroke-width:1.0416666666666667;"/><line style="stroke:#181818;stroke-width:1.0416666666666667;" x1="1081.4199" x2="1271.3562" y1="667.7826" y2="667.7826"/><text fill="#000000" font-family="Arial" font-size="13.5417" lengthAdjust="spacing" textLength="165.978" x="1088.7115" y="662.8296">7. Report Synced + Healthy</text><polygon fill="#181818" points="1265.1062,693.7709,1275.5229,697.9375,1265.1062,702.1042,1269.2729,697.9375" style="stroke:#181818;stroke-width:1.0416666666666667;"/><line style="stroke:#181818;stroke-width:1.0416666666666667;" x1="383.5795" x2="1271.3562" y1="697.9375" y2="697.9375"/><text fill="#000000" font-family="Arial" font-size="13.5417" lengthAdjust="spacing" textLength="245.1981" x="390.8712" y="692.9845">8. "Wait for Argo Application" polls status</text><polygon fill="#181818" points="395.0378,723.9258,384.6212,728.0924,395.0378,732.2591,390.8712,728.0924" style="stroke:#181818;stroke-width:1.0416666666666667;"/><line style="stroke:#181818;stroke-width:1.0416666666666667;stroke-dasharray:2.0,2.0;" x1="388.7878" x2="1276.5645" y1="728.0924" y2="728.0924"/><text fill="#000000" font-family="Arial" font-size="13.5417" lengthAdjust="spacing" textLength="106.515" x="401.2878" y="723.1394">Synced + Healthy</text><path d="M186.4583,741.6341 L186.4583,782.2591 L366.6667,782.2591 L366.6667,752.0508 L356.25,741.6341 L186.4583,741.6341 " fill="#FFFBEB" style="stroke:#F59E0B;stroke-width:0.5208333333333334;"/><path d="M356.25,741.6341 L356.25,752.0508 L366.6667,752.0508 L356.25,741.6341 " fill="#FFFBEB" style="stroke:#F59E0B;stroke-width:0.5208333333333334;"/><text fill="#000000" font-family="Arial" font-size="13.5417" lengthAdjust="spacing" textLength="158.8038" x="192.7083" y="759.5444">Release GATE clears only</text><text fill="#000000" font-family="Arial" font-size="13.5417" lengthAdjust="spacing" textLength="125.71" x="192.7083" y="775.116">on real cluster health</text><polygon fill="#181818" points="77.3488,806.0572,66.9322,810.2239,77.3488,814.3906,73.1822,810.2239" style="stroke:#181818;stroke-width:1.0416666666666667;"/><line style="stroke:#181818;stroke-width:1.0416666666666667;stroke-dasharray:2.0,2.0;" x1="71.0988" x2="377.3295" y1="810.2239" y2="810.2239"/><text fill="#000000" font-family="Arial" font-size="13.5417" lengthAdjust="spacing" textLength="282.2723" x="83.5988" y="805.2709">9. Release succeeded (or promote to next env)</text><text fill="#888888" font-family="Arial" font-size="14.5833" lengthAdjust="spacing" textLength="560.0627" x="532.9737" y="18.8873">C4 Architecture: Argo CD + Codefresh + Octopus &#8212; Release Flow (Dynamic / Level 4)</text><text fill="#888888" font-family="Arial" font-size="10.4167" lengthAdjust="spacing" textLength="101.3133" x="762.3484" y="934.7834">Diagram version: v1.0</text><!--SRC=[PLJ1Rjj64BtpAwOwIR1DeOcJjYvQmB2TE4XgevA2N0mKg-L8N7Yvo-ukfQgdVaI-i5_IDqjAib8VB8gQUJFlpPlvpZXjkuefSTDQbJXEyU5IrzYBL7F3POl7eeXQMQPNqzU5PfSuKCsgub0G_cukwJhesYJMgGjyXMzhJpUtT4Otlk9Lu5ZZ-L4dttQH_ltdAytOiefCxwpVqlXsvrHZD4tf4s_OqkMaO5SD5Ofa4ahlOpQ6jnd2EwRGmvmJmYdv_37Urfugpv6sjKhdP1pv0A19KIXq46XqAqLy2nBJ9xVlv3Vbr9h3Y5IaYZT5gq8oshJGWaRxrc-vjNxtvCOUV3cce9Bn3jpMejma9tkTYaebjHJKqVNVK8Jcltz2acfRabyG7v7Ug3uX_cbFgxqt2GAr7YaLHnEuefXGe0zVctGQlbTxrhba6aOMA5z_d9z37ksTDXRaSwf2v6dkOJx8gdrCA9NXFd-OGdwRwZvHhxuf-N5EDxP3V41Yw5mac8L0S2Zq7B-juv8o3fBFU6qWd8Xe6YWEQZuCr9J6k9rFJ7w3K8pXN5uHacBhNJHBOqqo7AyEPgfO6uX4N-xl7gRujxY_cq7Vt59Zrls0OWaCKTNqVKRV1OqYAqgXItNPSywUoJHWOsL9zmGfxfmMWAENO-staNg1IdhmgJPkJSjTgs84XbI26PFlT9q11wHIN4t2hoZ0ZIv-5RFG5NrVqarWJFXeQ4WP808bp8mJZBqnmRi6koSkDXi95gSLWW0Wc0X0hqfn0TqkFxSlsDEujnkjJ8XfqYiSpBfE8a6VEUyZ_DR10ilTNj_p9_Vmk90NWyiA2RyuTFwY23gsXgj3H_0f0bw3ccyQF3liRJ_nfDROIYXKvNMQoh2jsiMfxDrfSpt8eiRWT0_pOPubxLD53t6k4HFjw9VXDGql9eNa7xiT8C2hbaPb7OwTNfPORpbXf6lbrf3XPFbet7fhfrjUrju_JuvJo4krXu9T0VMc5CTwY_cTePgrkUM308L4ILSvwsfG1GQeTaUWvuXVtiAQa7Kt71wX-pC5z46jhp1NkB6LZk6L9UvF8LalW7FGJ71nBMdwH-zOJ5e_7mhf5G9_AFF12OdcC3iedz5zZjt1gATCz-FDUJ-MDFgY8DyATpKxHDerEbjYHA9OpF9riK32SHB_AvF7RdcLfzx7x2_p- -l57LQ8LS1nTHQN0sIWrd53Urv3QwWXotL5FvK7YDXfpLoX8YwtgDL8EJZGyLzvkIOlUUQzUlVukBYRZIV_0G00]--></g></svg>