<?plantuml 1.2026.2?><svg xmlns="http://www.w3.org/2000/svg" xmlns:xlink="http://www.w3.org/1999/xlink" contentStyleType="text/css" data-diagram-type="CLASS" height="893.75px" preserveAspectRatio="none" style="width:2040px;height:893px;background:#FFFFFF;" version="1.1" viewBox="0 0 2040 893" width="2040.625px" zoomAndPan="magnify"><title>Work Order System state commands (command objects)</title><defs/><g><g class="header" data-source-line="3"><text fill="#888888" font-family="'Arial'" font-size="10.4167" lengthAdjust="spacing" textLength="304.2094" x="861.2702" y="9.669">C4 Architecture: Work Order System &#8212; State / Commands</text></g><g class="title" data-source-line="10"><text fill="#000000" font-family="'Arial'" font-size="14.5833" font-weight="bold" lengthAdjust="spacing" textLength="464.7583" x="780.9958" y="37.1206">Work Order System state commands (command objects)</text></g><!--class StateCommandBase--><g class="entity" data-qualified-name="StateCommandBase" data-source-line="12" id="ent0002"><rect fill="#FFFFFF" height="364.1764" rx="2.6042" ry="2.6042" style="stroke:#2B7A78;stroke-width:0.5208;" width="232.9376" x="792.25" y="232.3932"/><ellipse cx="830.6172" cy="253.3649" fill="#A9DCDF" rx="11.4583" ry="11.4583" style="stroke:#181818;stroke-width:1.0417;"/><path d="M830.7311,248.5146 L829.5267,253.8044 L831.9518,253.8044 L830.7311,248.5146 Z M829.1849,246.1872 L832.2936,246.1872 L835.7929,259.0941 L833.2376,259.0941 L832.4401,255.904 L829.0221,255.904 L828.2409,259.0941 L825.7018,259.0941 L829.1849,246.1872 Z " fill="#000000"/><text fill="#000000" font-family="Arial" font-size="12.5" font-style="italic" lengthAdjust="spacing" textLength="55.8533" x="896.8607" y="249.2043">&#171;record&#187;</text><text fill="#000000" font-family="'Arial'" font-size="14.5833" font-style="italic" lengthAdjust="spacing" textLength="149.0662" x="850.2543" y="265.6889">StateCommandBase</text><line style="stroke:#2B7A78;stroke-width:0.5208;" x1="793.2917" x2="1024.146" y1="274.3366" y2="274.3366"/><g data-visibility-modifier="PUBLIC_FIELD"><ellipse cx="803.7083" cy="288.5537" fill="none" rx="3.125" ry="3.125" style="stroke:#038048;stroke-width:1.0417;"/></g><text fill="#000000" font-family="'Arial'" font-size="14.5833" lengthAdjust="spacing" textLength="79.482" x="813.0833" y="292.0398">WorkOrder</text><text fill="#000000" font-family="'Arial'" font-size="14.5833" lengthAdjust="spacing" textLength="4.6356" x="892.5653" y="292.0398">&#160;</text><text fill="#000000" font-family="'Arial'" font-size="14.5833" lengthAdjust="spacing" textLength="4.9133" x="897.201" y="292.0398">:</text><text fill="#000000" font-family="'Arial'" font-size="14.5833" lengthAdjust="spacing" textLength="4.6356" x="902.1143" y="292.0398">&#160;</text><text fill="#000000" font-family="'Arial'" font-size="14.5833" lengthAdjust="spacing" textLength="79.482" x="906.7499" y="292.0398">WorkOrder</text><g data-visibility-modifier="PUBLIC_FIELD"><ellipse cx="803.7083" cy="305.5296" fill="none" rx="3.125" ry="3.125" style="stroke:#038048;stroke-width:1.0417;"/></g><text fill="#000000" font-family="'Arial'" font-size="14.5833" lengthAdjust="spacing" textLength="88.5895" x="813.0833" y="309.0157">CurrentUser</text><text fill="#000000" font-family="'Arial'" font-size="14.5833" lengthAdjust="spacing" textLength="4.6356" x="901.6728" y="309.0157">&#160;</text><text fill="#000000" font-family="'Arial'" font-size="14.5833" lengthAdjust="spacing" textLength="4.9133" x="906.3084" y="309.0157">:</text><text fill="#000000" font-family="'Arial'" font-size="14.5833" lengthAdjust="spacing" textLength="4.6356" x="911.2218" y="309.0157">&#160;</text><text fill="#000000" font-family="'Arial'" font-size="14.5833" lengthAdjust="spacing" textLength="72.226" x="915.8574" y="309.0157">Employee</text><g data-visibility-modifier="PUBLIC_FIELD"><ellipse cx="803.7083" cy="330.9935" fill="none" rx="3.125" ry="3.125" style="stroke:#038048;stroke-width:1.0417;"/></g><text fill="#000000" font-family="'Arial'" font-size="14.5833" lengthAdjust="spacing" textLength="153.0467" x="813.0833" y="325.9917">StateTransitionEvent</text><text fill="#000000" font-family="'Arial'" font-size="14.5833" lengthAdjust="spacing" textLength="4.6356" x="966.13" y="325.9917">&#160;</text><text fill="#000000" font-family="'Arial'" font-size="14.5833" lengthAdjust="spacing" textLength="4.9133" x="970.7656" y="325.9917">:</text><text fill="#000000" font-family="'Arial'" font-size="14.5833" lengthAdjust="spacing" textLength="165.0879" x="813.0833" y="342.9676">IStateTransitionEvent?</text><g data-visibility-modifier="PUBLIC_FIELD"><ellipse cx="803.7083" cy="364.9453" fill="none" rx="3.125" ry="3.125" style="stroke:#038048;stroke-width:1.0417;"/></g><text fill="#000000" font-family="'Arial'" font-size="14.5833" lengthAdjust="spacing" textLength="205.8543" x="813.0833" y="359.9435">TransitionVerbPresentTense</text><text fill="#000000" font-family="'Arial'" font-size="14.5833" lengthAdjust="spacing" textLength="4.9133" x="813.0833" y="376.9194">:</text><text fill="#000000" font-family="'Arial'" font-size="14.5833" lengthAdjust="spacing" textLength="4.6356" x="817.9967" y="376.9194">&#160;</text><text fill="#000000" font-family="'Arial'" font-size="14.5833" lengthAdjust="spacing" textLength="41.863" x="822.6323" y="376.9194">string</text><g data-visibility-modifier="PUBLIC_FIELD"><ellipse cx="803.7083" cy="398.8971" fill="none" rx="3.125" ry="3.125" style="stroke:#038048;stroke-width:1.0417;"/></g><text fill="#000000" font-family="'Arial'" font-size="14.5833" lengthAdjust="spacing" textLength="181.6081" x="813.0833" y="393.8953">TransitionVerbPastTense</text><text fill="#000000" font-family="'Arial'" font-size="14.5833" lengthAdjust="spacing" textLength="4.6356" x="994.6914" y="393.8953">&#160;</text><text fill="#000000" font-family="'Arial'" font-size="14.5833" lengthAdjust="spacing" textLength="4.9133" x="999.327" y="393.8953">:</text><text fill="#000000" font-family="'Arial'" font-size="14.5833" lengthAdjust="spacing" textLength="41.863" x="813.0833" y="410.8712">string</text><line style="stroke:#2B7A78;stroke-width:0.5208;" x1="793.2917" x2="1024.146" y1="418.4772" y2="418.4772"/><g data-visibility-modifier="PUBLIC_METHOD"><ellipse cx="803.7083" cy="441.1823" fill="#84BE84" rx="3.125" ry="3.125" style="stroke:#038048;stroke-width:1.0417;"/></g><text fill="#000000" font-family="'Arial'" font-size="14.5833" lengthAdjust="spacing" textLength="125.3682" x="813.0833" y="436.1805">GetBeginStatus()</text><text fill="#000000" font-family="'Arial'" font-size="14.5833" lengthAdjust="spacing" textLength="4.6356" x="938.4516" y="436.1805">&#160;</text><text fill="#000000" font-family="'Arial'" font-size="14.5833" lengthAdjust="spacing" textLength="4.9133" x="943.0872" y="436.1805">:</text><text fill="#000000" font-family="'Arial'" font-size="14.5833" lengthAdjust="spacing" textLength="125.9521" x="813.0833" y="453.1564">WorkOrderStatus</text><g data-visibility-modifier="PUBLIC_METHOD"><ellipse cx="803.7083" cy="475.1341" fill="#84BE84" rx="3.125" ry="3.125" style="stroke:#038048;stroke-width:1.0417;"/></g><text fill="#000000" font-family="'Arial'" font-size="14.5833" lengthAdjust="spacing" textLength="111.554" x="813.0833" y="470.1323">GetEndStatus()</text><text fill="#000000" font-family="'Arial'" font-size="14.5833" lengthAdjust="spacing" textLength="4.6356" x="924.6373" y="470.1323">&#160;</text><text fill="#000000" font-family="'Arial'" font-size="14.5833" lengthAdjust="spacing" textLength="4.9133" x="929.2729" y="470.1323">:</text><text fill="#000000" font-family="'Arial'" font-size="14.5833" lengthAdjust="spacing" textLength="125.9521" x="813.0833" y="487.1082">WorkOrderStatus</text><g data-visibility-modifier="PUBLIC_METHOD"><ellipse cx="803.7083" cy="500.598" fill="#84BE84" rx="3.125" ry="3.125" style="stroke:#038048;stroke-width:1.0417;"/></g><text fill="#000000" font-family="'Arial'" font-size="14.5833" lengthAdjust="spacing" textLength="59.551" x="813.0833" y="504.0841">IsValid()</text><text fill="#000000" font-family="'Arial'" font-size="14.5833" lengthAdjust="spacing" textLength="4.6356" x="872.6343" y="504.0841">&#160;</text><text fill="#000000" font-family="'Arial'" font-size="14.5833" lengthAdjust="spacing" textLength="4.9133" x="877.2699" y="504.0841">:</text><text fill="#000000" font-family="'Arial'" font-size="14.5833" lengthAdjust="spacing" textLength="4.6356" x="882.1833" y="504.0841">&#160;</text><text fill="#000000" font-family="'Arial'" font-size="14.5833" lengthAdjust="spacing" textLength="31.1534" x="886.8189" y="504.0841">bool</text><g data-visibility-modifier="PUBLIC_METHOD"><ellipse cx="803.7083" cy="526.0618" fill="#84BE84" rx="3.125" ry="3.125" style="stroke:#038048;stroke-width:1.0417;"/></g><text fill="#000000" font-family="'Arial'" font-size="14.5833" lengthAdjust="spacing" textLength="182.5694" x="813.0833" y="521.06">Matches(commandName</text><text fill="#000000" font-family="'Arial'" font-size="14.5833" lengthAdjust="spacing" textLength="4.6356" x="995.6527" y="521.06">&#160;</text><text fill="#000000" font-family="'Arial'" font-size="14.5833" lengthAdjust="spacing" textLength="4.9133" x="1000.2883" y="521.06">:</text><text fill="#000000" font-family="'Arial'" font-size="14.5833" lengthAdjust="spacing" textLength="47.5525" x="813.0833" y="538.0359">string)</text><text fill="#000000" font-family="'Arial'" font-size="14.5833" lengthAdjust="spacing" textLength="4.6356" x="860.6358" y="538.0359">&#160;</text><text fill="#000000" font-family="'Arial'" font-size="14.5833" lengthAdjust="spacing" textLength="4.9133" x="865.2714" y="538.0359">:</text><text fill="#000000" font-family="'Arial'" font-size="14.5833" lengthAdjust="spacing" textLength="4.6356" x="870.1848" y="538.0359">&#160;</text><text fill="#000000" font-family="'Arial'" font-size="14.5833" lengthAdjust="spacing" textLength="31.1534" x="874.8204" y="538.0359">bool</text><g data-visibility-modifier="PUBLIC_METHOD"><ellipse cx="803.7083" cy="568.5016" fill="#84BE84" rx="3.125" ry="3.125" style="stroke:#038048;stroke-width:1.0417;"/></g><text fill="#000000" font-family="'Arial'" font-size="14.5833" lengthAdjust="spacing" textLength="119.6788" x="813.0833" y="555.0118">Execute(context</text><text fill="#000000" font-family="'Arial'" font-size="14.5833" lengthAdjust="spacing" textLength="4.6356" x="932.7621" y="555.0118">&#160;</text><text fill="#000000" font-family="'Arial'" font-size="14.5833" lengthAdjust="spacing" textLength="4.9133" x="937.3977" y="555.0118">:</text><text fill="#000000" font-family="'Arial'" font-size="14.5833" lengthAdjust="spacing" textLength="176.6307" x="813.0833" y="571.9878">StateCommandContext)</text><text fill="#000000" font-family="'Arial'" font-size="14.5833" lengthAdjust="spacing" textLength="4.6356" x="989.714" y="571.9878">&#160;</text><text fill="#000000" font-family="'Arial'" font-size="14.5833" lengthAdjust="spacing" textLength="4.9133" x="994.3496" y="571.9878">:</text><text fill="#000000" font-family="'Arial'" font-size="14.5833" lengthAdjust="spacing" textLength="30.8614" x="813.0833" y="588.9637">void</text></g><!--class SaveDraftCommand--><g class="entity" data-qualified-name="SaveDraftCommand" data-source-line="25" id="ent0003"><rect fill="#FFFFFF" height="109.5378" rx="2.6042" ry="2.6042" style="stroke:#2B7A78;stroke-width:0.5208;" width="213.2629" x="7.2917" y="59.3099"/><ellipse cx="37.3916" cy="80.2816" fill="#ADD1B2" rx="11.4583" ry="11.4583" style="stroke:#181818;stroke-width:1.0417;"/><path d="M40.4841,86.1572 Q39.8818,86.4665 39.2145,86.613 Q38.5472,86.7757 37.8148,86.7757 Q35.2106,86.7757 33.8272,85.0667 Q32.46,83.3415 32.46,80.0863 Q32.46,76.8311 33.8272,75.1058 Q35.2106,73.3805 37.8148,73.3805 Q38.5472,73.3805 39.2145,73.5433 Q39.8981,73.7061 40.4841,74.0153 L40.4841,76.8473 Q39.833,76.2451 39.2145,75.9684 Q38.596,75.6755 37.945,75.6755 Q36.5453,75.6755 35.8291,76.7985 Q35.113,77.9053 35.113,80.0863 Q35.113,82.2673 35.8291,83.3903 Q36.5453,84.4971 37.945,84.4971 Q38.596,84.4971 39.2145,84.2204 Q39.833,83.9274 40.4841,83.3252 L40.4841,86.1572 Z " fill="#000000"/><text fill="#000000" font-family="Arial" font-size="12.5" font-style="italic" lengthAdjust="spacing" textLength="55.8533" x="101.1465" y="76.121">&#171;record&#187;</text><text fill="#000000" font-family="'Arial'" font-size="14.5833" lengthAdjust="spacing" textLength="147.7631" x="55.1916" y="92.6056">SaveDraftCommand</text><line style="stroke:#2B7A78;stroke-width:0.5208;" x1="8.3333" x2="219.5129" y1="101.2533" y2="101.2533"/><line style="stroke:#2B7A78;stroke-width:0.5208;" x1="8.3333" x2="219.5129" y1="109.5866" y2="109.5866"/><g data-visibility-modifier="PUBLIC_METHOD"><ellipse cx="18.75" cy="140.7796" fill="#84BE84" rx="3.125" ry="3.125" style="stroke:#038048;stroke-width:1.0417;"/></g><text fill="#000000" font-family="'Arial'" font-size="14.5833" lengthAdjust="spacing" textLength="119.6788" x="28.125" y="127.2898">Execute(context</text><text fill="#000000" font-family="'Arial'" font-size="14.5833" lengthAdjust="spacing" textLength="4.6356" x="147.8038" y="127.2898">&#160;</text><text fill="#000000" font-family="'Arial'" font-size="14.5833" lengthAdjust="spacing" textLength="4.9133" x="152.4394" y="127.2898">:</text><text fill="#000000" font-family="'Arial'" font-size="14.5833" lengthAdjust="spacing" textLength="176.6307" x="28.125" y="144.2657">StateCommandContext)</text><text fill="#000000" font-family="'Arial'" font-size="14.5833" lengthAdjust="spacing" textLength="4.6356" x="204.7557" y="144.2657">&#160;</text><text fill="#000000" font-family="'Arial'" font-size="14.5833" lengthAdjust="spacing" textLength="4.9133" x="209.3913" y="144.2657">:</text><text fill="#000000" font-family="'Arial'" font-size="14.5833" lengthAdjust="spacing" textLength="30.8614" x="28.125" y="161.2417">void</text></g><g class="entity" data-qualified-name="GMN4" data-source-line="30" id="ent0005"><path d="M257,85.2266 L257,109.9141 L220.6563,114.0807 L257,118.2474 L257,142.9333 A0,0 0 0 0 257,142.9333 L479.1766,142.9333 A0,0 0 0 0 479.1766,142.9333 L479.1766,95.6432 L468.7599,85.2266 L257,85.2266 A0,0 0 0 0 257,85.2266" fill="#FFF8E1" style="stroke:#145A57;stroke-width:0.5208;"/><path d="M468.7599,85.2266 L468.7599,95.6432 L479.1766,95.6432 L468.7599,85.2266" fill="#FFF8E1" style="stroke:#145A57;stroke-width:0.5208;"/><text fill="#000000" font-family="'Arial'" font-size="13.5417" lengthAdjust="spacing" textLength="46.0999" x="297.3224" y="103.0046">Guard:</text><text fill="#000000" font-family="'Arial'" font-size="13.5417" lengthAdjust="spacing" textLength="4.3045" x="343.4222" y="103.0046">&#160;</text><text fill="#000000" font-family="'Arial'" font-size="13.5417" lengthAdjust="spacing" textLength="28.6438" x="347.7267" y="103.0046">only</text><text fill="#000000" font-family="'Arial'" font-size="13.5417" lengthAdjust="spacing" textLength="4.3045" x="376.3705" y="103.0046">&#160;</text><text fill="#000000" font-family="'Arial'" font-size="13.5417" lengthAdjust="spacing" textLength="48.8042" x="380.675" y="103.0046">creator</text><text fill="#000000" font-family="'Arial'" font-size="13.5417" lengthAdjust="spacing" textLength="77.6861" x="263.25" y="118.7679">Side-effect:</text><text fill="#000000" font-family="'Arial'" font-size="13.5417" lengthAdjust="spacing" textLength="4.3045" x="340.9361" y="118.7679">&#160;</text><text fill="#000000" font-family="'Arial'" font-size="13.5417" lengthAdjust="spacing" textLength="27.7512" x="345.2406" y="118.7679">sets</text><text fill="#000000" font-family="'Arial'" font-size="13.5417" lengthAdjust="spacing" textLength="4.3045" x="372.9917" y="118.7679">&#160;</text><text fill="#000000" font-family="'Arial'" font-size="13.5417" lengthAdjust="spacing" textLength="86.2554" x="377.2962" y="118.7679">CreatedDate</text><text fill="#000000" font-family="'Arial'" font-size="13.5417" lengthAdjust="spacing" textLength="36.5718" x="316.9604" y="134.5313">when</text><text fill="#000000" font-family="'Arial'" font-size="13.5417" lengthAdjust="spacing" textLength="4.3045" x="353.5322" y="134.5313">&#160;</text><text fill="#000000" font-family="'Arial'" font-size="13.5417" lengthAdjust="spacing" textLength="52.0045" x="357.8367" y="134.5313">missing</text></g><!--class DraftToAssignedCommand--><g class="entity" data-qualified-name="DraftToAssignedCommand" data-source-line="34" id="ent0007"><rect fill="#FFFFFF" height="109.5378" rx="2.6042" ry="2.6042" style="stroke:#2B7A78;stroke-width:0.5208;" width="229.0833" x="516.0521" y="59.3099"/><ellipse cx="531.6771" cy="80.2816" fill="#ADD1B2" rx="11.4583" ry="11.4583" style="stroke:#181818;stroke-width:1.0417;"/><path d="M534.7695,86.1572 Q534.1673,86.4665 533.5,86.613 Q532.8327,86.7757 532.1003,86.7757 Q529.4961,86.7757 528.1126,85.0667 Q526.7454,83.3415 526.7454,80.0863 Q526.7454,76.8311 528.1126,75.1058 Q529.4961,73.3805 532.1003,73.3805 Q532.8327,73.3805 533.5,73.5433 Q534.1836,73.7061 534.7695,74.0153 L534.7695,76.8473 Q534.1185,76.2451 533.5,75.9684 Q532.8815,75.6755 532.2305,75.6755 Q530.8307,75.6755 530.1146,76.7985 Q529.3984,77.9053 529.3984,80.0863 Q529.3984,82.2673 530.1146,83.3903 Q530.8307,84.4971 532.2305,84.4971 Q532.8815,84.4971 533.5,84.2204 Q534.1185,83.9274 534.7695,83.3252 L534.7695,86.1572 Z " fill="#000000"/><text fill="#000000" font-family="Arial" font-size="12.5" font-style="italic" lengthAdjust="spacing" textLength="55.8533" x="616.2087" y="76.121">&#171;record&#187;</text><text fill="#000000" font-family="'Arial'" font-size="14.5833" lengthAdjust="spacing" textLength="195.7499" x="546.2604" y="92.6056">DraftToAssignedCommand</text><line style="stroke:#2B7A78;stroke-width:0.5208;" x1="517.0938" x2="744.0937" y1="101.2533" y2="101.2533"/><line style="stroke:#2B7A78;stroke-width:0.5208;" x1="517.0938" x2="744.0937" y1="109.5866" y2="109.5866"/><g data-visibility-modifier="PUBLIC_METHOD"><ellipse cx="527.5104" cy="140.7796" fill="#84BE84" rx="3.125" ry="3.125" style="stroke:#038048;stroke-width:1.0417;"/></g><text fill="#000000" font-family="'Arial'" font-size="14.5833" lengthAdjust="spacing" textLength="119.6788" x="536.8854" y="127.2898">Execute(context</text><text fill="#000000" font-family="'Arial'" font-size="14.5833" lengthAdjust="spacing" textLength="4.6356" x="656.5642" y="127.2898">&#160;</text><text fill="#000000" font-family="'Arial'" font-size="14.5833" lengthAdjust="spacing" textLength="4.9133" x="661.1998" y="127.2898">:</text><text fill="#000000" font-family="'Arial'" font-size="14.5833" lengthAdjust="spacing" textLength="176.6307" x="536.8854" y="144.2657">StateCommandContext)</text><text fill="#000000" font-family="'Arial'" font-size="14.5833" lengthAdjust="spacing" textLength="4.6356" x="713.5161" y="144.2657">&#160;</text><text fill="#000000" font-family="'Arial'" font-size="14.5833" lengthAdjust="spacing" textLength="4.9133" x="718.1517" y="144.2657">:</text><text fill="#000000" font-family="'Arial'" font-size="14.5833" lengthAdjust="spacing" textLength="30.8614" x="536.8854" y="161.2417">void</text></g><g class="entity" data-qualified-name="GMN8" data-source-line="39" id="ent0009"><path d="M781.7604,69.4661 L781.7604,109.9141 L745.5417,114.0807 L781.7604,118.2474 L781.7604,158.6995 A0,0 0 0 0 781.7604,158.6995 L1016.9167,158.6995 A0,0 0 0 0 1016.9167,158.6995 L1016.9167,79.8828 L1006.5,69.4661 L781.7604,69.4661 A0,0 0 0 0 781.7604,69.4661" fill="#FFF8E1" style="stroke:#145A57;stroke-width:0.5208;"/><path d="M1006.5,69.4661 L1006.5,79.8828 L1016.9167,79.8828 L1006.5,69.4661" fill="#FFF8E1" style="stroke:#145A57;stroke-width:0.5208;"/><text fill="#000000" font-family="'Arial'" font-size="13.5417" lengthAdjust="spacing" textLength="46.0999" x="814.2573" y="87.2442">Guard:</text><text fill="#000000" font-family="'Arial'" font-size="13.5417" lengthAdjust="spacing" textLength="4.3045" x="860.3572" y="87.2442">&#160;</text><text fill="#000000" font-family="'Arial'" font-size="13.5417" lengthAdjust="spacing" textLength="28.6438" x="864.6617" y="87.2442">only</text><text fill="#000000" font-family="'Arial'" font-size="13.5417" lengthAdjust="spacing" textLength="4.3045" x="893.3055" y="87.2442">&#160;</text><text fill="#000000" font-family="'Arial'" font-size="13.5417" lengthAdjust="spacing" textLength="48.8042" x="897.61" y="87.2442">creator</text><text fill="#000000" font-family="'Arial'" font-size="13.5417" lengthAdjust="spacing" textLength="4.3045" x="946.4142" y="87.2442">&#160;</text><text fill="#000000" font-family="'Arial'" font-size="13.5417" lengthAdjust="spacing" textLength="24.3261" x="950.7187" y="87.2442">can</text><text fill="#000000" font-family="'Arial'" font-size="13.5417" lengthAdjust="spacing" textLength="43.3492" x="872.9764" y="103.0075">assign</text><text fill="#000000" font-family="'Arial'" font-size="13.5417" lengthAdjust="spacing" textLength="77.6861" x="815.1103" y="118.7709">Side-effect:</text><text fill="#000000" font-family="'Arial'" font-size="13.5417" lengthAdjust="spacing" textLength="4.3045" x="892.7963" y="118.7709">&#160;</text><text fill="#000000" font-family="'Arial'" font-size="13.5417" lengthAdjust="spacing" textLength="29.5034" x="897.1008" y="118.7709">may</text><text fill="#000000" font-family="'Arial'" font-size="13.5417" lengthAdjust="spacing" textLength="4.3045" x="926.6042" y="118.7709">&#160;</text><text fill="#000000" font-family="'Arial'" font-size="13.5417" lengthAdjust="spacing" textLength="43.2831" x="930.9087" y="118.7709">create</text><text fill="#000000" font-family="'Arial'" font-size="13.5417" lengthAdjust="spacing" textLength="213.2813" x="788.0104" y="134.5342">WorkOrderAssignedToBotEvent</text><text fill="#000000" font-family="'Arial'" font-size="13.5417" lengthAdjust="spacing" textLength="36.5718" x="801.3669" y="150.2975">when</text><text fill="#000000" font-family="'Arial'" font-size="13.5417" lengthAdjust="spacing" textLength="4.3045" x="837.9387" y="150.2975">&#160;</text><text fill="#000000" font-family="'Arial'" font-size="13.5417" lengthAdjust="spacing" textLength="60.0118" x="842.2432" y="150.2975">assignee</text><text fill="#000000" font-family="'Arial'" font-size="13.5417" lengthAdjust="spacing" textLength="4.3045" x="902.255" y="150.2975">&#160;</text><text fill="#000000" font-family="'Arial'" font-size="13.5417" lengthAdjust="spacing" textLength="23.936" x="906.5595" y="150.2975">has</text><text fill="#000000" font-family="'Arial'" font-size="13.5417" lengthAdjust="spacing" textLength="4.3045" x="930.4955" y="150.2975">&#160;</text><text fill="#000000" font-family="'Arial'" font-size="13.5417" lengthAdjust="spacing" textLength="22.8846" x="934.8" y="150.2975">Bot</text><text fill="#000000" font-family="'Arial'" font-size="13.5417" lengthAdjust="spacing" textLength="4.3045" x="957.6846" y="150.2975">&#160;</text><text fill="#000000" font-family="'Arial'" font-size="13.5417" lengthAdjust="spacing" textLength="25.946" x="961.9891" y="150.2975">role</text></g><!--class AssignedToInProgressCommand--><g class="entity" data-qualified-name="AssignedToInProgressCommand" data-source-line="43" id="ent0011"><rect fill="#FFFFFF" height="58.61" rx="2.6042" ry="2.6042" style="stroke:#2B7A78;stroke-width:0.5208;" width="268.7459" x="1053.5104" y="84.7786"/><ellipse cx="1069.1354" cy="105.7503" fill="#ADD1B2" rx="11.4583" ry="11.4583" style="stroke:#181818;stroke-width:1.0417;"/><path d="M1072.2279,111.626 Q1071.6257,111.9352 1070.9583,112.0817 Q1070.291,112.2445 1069.5586,112.2445 Q1066.9544,112.2445 1065.571,110.5355 Q1064.2038,108.8102 1064.2038,105.555 Q1064.2038,102.2998 1065.571,100.5745 Q1066.9544,98.8493 1069.5586,98.8493 Q1070.291,98.8493 1070.9583,99.012 Q1071.6419,99.1748 1072.2279,99.484 L1072.2279,102.3161 Q1071.5768,101.7139 1070.9583,101.4372 Q1070.3398,101.1442 1069.6888,101.1442 Q1068.2891,101.1442 1067.5729,102.2673 Q1066.8568,103.374 1066.8568,105.555 Q1066.8568,107.736 1067.5729,108.859 Q1068.2891,109.9658 1069.6888,109.9658 Q1070.3398,109.9658 1070.9583,109.6891 Q1071.5768,109.3962 1072.2279,108.7939 L1072.2279,111.626 Z " fill="#000000"/><text fill="#000000" font-family="Arial" font-size="12.5" font-style="italic" lengthAdjust="spacing" textLength="55.8533" x="1173.4984" y="101.5898">&#171;record&#187;</text><text fill="#000000" font-family="'Arial'" font-size="14.5833" lengthAdjust="spacing" textLength="235.4126" x="1083.7188" y="118.0743">AssignedToInProgressCommand</text><line style="stroke:#2B7A78;stroke-width:0.5208;" x1="1054.5521" x2="1321.2147" y1="126.722" y2="126.722"/><line style="stroke:#2B7A78;stroke-width:0.5208;" x1="1054.5521" x2="1321.2147" y1="135.0553" y2="135.0553"/></g><g class="entity" data-qualified-name="GMN12" data-source-line="47" id="ent0013"><path d="M1358.3854,100.9974 L1358.3854,109.9141 L1322.3542,114.0807 L1358.3854,118.2474 L1358.3854,127.1774 A0,0 0 0 0 1358.3854,127.1774 L1523.6249,127.1774 A0,0 0 0 0 1523.6249,127.1774 L1523.6249,111.4141 L1513.2082,100.9974 L1358.3854,100.9974 A0,0 0 0 0 1358.3854,100.9974" fill="#FFF8E1" style="stroke:#145A57;stroke-width:0.5208;"/><path d="M1513.2082,100.9974 L1513.2082,111.4141 L1523.6249,111.4141 L1513.2082,100.9974" fill="#FFF8E1" style="stroke:#145A57;stroke-width:0.5208;"/><text fill="#000000" font-family="'Arial'" font-size="13.5417" lengthAdjust="spacing" textLength="46.0999" x="1364.6354" y="118.7754">Guard:</text><text fill="#000000" font-family="'Arial'" font-size="13.5417" lengthAdjust="spacing" textLength="4.3045" x="1410.7353" y="118.7754">&#160;</text><text fill="#000000" font-family="'Arial'" font-size="13.5417" lengthAdjust="spacing" textLength="28.6438" x="1415.0398" y="118.7754">only</text><text fill="#000000" font-family="'Arial'" font-size="13.5417" lengthAdjust="spacing" textLength="4.3045" x="1443.6836" y="118.7754">&#160;</text><text fill="#000000" font-family="'Arial'" font-size="13.5417" lengthAdjust="spacing" textLength="60.0118" x="1447.9881" y="118.7754">assignee</text></g><!--class InProgressToCompleteCommand--><g class="entity" data-qualified-name="InProgressToCompleteCommand" data-source-line="50" id="ent0015"><rect fill="#FFFFFF" height="109.5378" rx="2.6042" ry="2.6042" style="stroke:#2B7A78;stroke-width:0.5208;" width="273.0754" x="1559.6771" y="59.3099"/><ellipse cx="1575.3021" cy="80.2816" fill="#ADD1B2" rx="11.4583" ry="11.4583" style="stroke:#181818;stroke-width:1.0417;"/><path d="M1578.3945,86.1572 Q1577.7923,86.4665 1577.125,86.613 Q1576.4577,86.7757 1575.7253,86.7757 Q1573.1211,86.7757 1571.7376,85.0667 Q1570.3704,83.3415 1570.3704,80.0863 Q1570.3704,76.8311 1571.7376,75.1058 Q1573.1211,73.3805 1575.7253,73.3805 Q1576.4577,73.3805 1577.125,73.5433 Q1577.8086,73.7061 1578.3945,74.0153 L1578.3945,76.8473 Q1577.7435,76.2451 1577.125,75.9684 Q1576.5065,75.6755 1575.8555,75.6755 Q1574.4557,75.6755 1573.7396,76.7985 Q1573.0234,77.9053 1573.0234,80.0863 Q1573.0234,82.2673 1573.7396,83.3903 Q1574.4557,84.4971 1575.8555,84.4971 Q1576.5065,84.4971 1577.125,84.2204 Q1577.7435,83.9274 1578.3945,83.3252 L1578.3945,86.1572 Z " fill="#000000"/><text fill="#000000" font-family="Arial" font-size="12.5" font-style="italic" lengthAdjust="spacing" textLength="55.8533" x="1681.8298" y="76.121">&#171;record&#187;</text><text fill="#000000" font-family="'Arial'" font-size="14.5833" lengthAdjust="spacing" textLength="239.742" x="1589.8854" y="92.6056">InProgressToCompleteCommand</text><line style="stroke:#2B7A78;stroke-width:0.5208;" x1="1560.7188" x2="1831.7108" y1="101.2533" y2="101.2533"/><line style="stroke:#2B7A78;stroke-width:0.5208;" x1="1560.7188" x2="1831.7108" y1="109.5866" y2="109.5866"/><g data-visibility-modifier="PUBLIC_METHOD"><ellipse cx="1571.1354" cy="140.7796" fill="#84BE84" rx="3.125" ry="3.125" style="stroke:#038048;stroke-width:1.0417;"/></g><text fill="#000000" font-family="'Arial'" font-size="14.5833" lengthAdjust="spacing" textLength="119.6788" x="1580.5104" y="127.2898">Execute(context</text><text fill="#000000" font-family="'Arial'" font-size="14.5833" lengthAdjust="spacing" textLength="4.6356" x="1700.1892" y="127.2898">&#160;</text><text fill="#000000" font-family="'Arial'" font-size="14.5833" lengthAdjust="spacing" textLength="4.9133" x="1704.8248" y="127.2898">:</text><text fill="#000000" font-family="'Arial'" font-size="14.5833" lengthAdjust="spacing" textLength="176.6307" x="1580.5104" y="144.2657">StateCommandContext)</text><text fill="#000000" font-family="'Arial'" font-size="14.5833" lengthAdjust="spacing" textLength="4.6356" x="1757.1411" y="144.2657">&#160;</text><text fill="#000000" font-family="'Arial'" font-size="14.5833" lengthAdjust="spacing" textLength="4.9133" x="1761.7767" y="144.2657">:</text><text fill="#000000" font-family="'Arial'" font-size="14.5833" lengthAdjust="spacing" textLength="30.8614" x="1580.5104" y="161.2417">void</text></g><g class="entity" data-qualified-name="GMN16" data-source-line="55" id="ent0017"><path d="M1868.8021,85.2266 L1868.8021,109.9141 L1832.7917,114.0807 L1868.8021,118.2474 L1868.8021,142.9333 A0,0 0 0 0 1868.8021,142.9333 L2034.0415,142.9333 A0,0 0 0 0 2034.0415,142.9333 L2034.0415,95.6432 L2023.6249,85.2266 L1868.8021,85.2266 A0,0 0 0 0 1868.8021,85.2266" fill="#FFF8E1" style="stroke:#145A57;stroke-width:0.5208;"/><path d="M2023.6249,85.2266 L2023.6249,95.6432 L2034.0415,95.6432 L2023.6249,85.2266" fill="#FFF8E1" style="stroke:#145A57;stroke-width:0.5208;"/><text fill="#000000" font-family="'Arial'" font-size="13.5417" lengthAdjust="spacing" textLength="46.0999" x="1875.0521" y="103.0046">Guard:</text><text fill="#000000" font-family="'Arial'" font-size="13.5417" lengthAdjust="spacing" textLength="4.3045" x="1921.1519" y="103.0046">&#160;</text><text fill="#000000" font-family="'Arial'" font-size="13.5417" lengthAdjust="spacing" textLength="28.6438" x="1925.4564" y="103.0046">only</text><text fill="#000000" font-family="'Arial'" font-size="13.5417" lengthAdjust="spacing" textLength="4.3045" x="1954.1002" y="103.0046">&#160;</text><text fill="#000000" font-family="'Arial'" font-size="13.5417" lengthAdjust="spacing" textLength="60.0118" x="1958.4047" y="103.0046">assignee</text><text fill="#000000" font-family="'Arial'" font-size="13.5417" lengthAdjust="spacing" textLength="77.6861" x="1891.8635" y="118.7679">Side-effect:</text><text fill="#000000" font-family="'Arial'" font-size="13.5417" lengthAdjust="spacing" textLength="4.3045" x="1969.5495" y="118.7679">&#160;</text><text fill="#000000" font-family="'Arial'" font-size="13.5417" lengthAdjust="spacing" textLength="27.7512" x="1973.854" y="118.7679">sets</text><text fill="#000000" font-family="'Arial'" font-size="13.5417" lengthAdjust="spacing" textLength="106.2241" x="1893.6223" y="134.5313">CompletedDate</text></g><!--class StateCommandResult--><g class="entity" data-qualified-name="StateCommandResult" data-source-line="59" id="ent0019"><rect fill="#FFFFFF" height="126.5137" rx="2.6042" ry="2.6042" style="stroke:#2B7A78;stroke-width:0.5208;" width="232.9376" x="1062.0417" y="351.2266"/><ellipse cx="1095.817" cy="372.1982" fill="#ADD1B2" rx="11.4583" ry="11.4583" style="stroke:#181818;stroke-width:1.0417;"/><path d="M1098.9094,378.0739 Q1098.3072,378.3831 1097.6399,378.5296 Q1096.9726,378.6924 1096.2402,378.6924 Q1093.636,378.6924 1092.2525,376.9834 Q1090.8854,375.2581 1090.8854,372.0029 Q1090.8854,368.7477 1092.2525,367.0225 Q1093.636,365.2972 1096.2402,365.2972 Q1096.9726,365.2972 1097.6399,365.46 Q1098.3235,365.6227 1098.9094,365.932 L1098.9094,368.764 Q1098.2584,368.1618 1097.6399,367.8851 Q1097.0214,367.5921 1096.3704,367.5921 Q1094.9706,367.5921 1094.2545,368.7152 Q1093.5384,369.8219 1093.5384,372.0029 Q1093.5384,374.1839 1094.2545,375.307 Q1094.9706,376.4137 1096.3704,376.4137 Q1097.0214,376.4137 1097.6399,376.137 Q1098.2584,375.8441 1098.9094,375.2419 L1098.9094,378.0739 Z " fill="#000000"/><text fill="#000000" font-family="Arial" font-size="12.5" font-style="italic" lengthAdjust="spacing" textLength="55.8533" x="1166.1422" y="368.0377">&#171;record&#187;</text><text fill="#000000" font-family="'Arial'" font-size="14.5833" lengthAdjust="spacing" textLength="159.2702" x="1114.4337" y="384.5223">StateCommandResult</text><line style="stroke:#2B7A78;stroke-width:0.5208;" x1="1063.0833" x2="1293.9376" y1="393.1699" y2="393.1699"/><g data-visibility-modifier="PUBLIC_FIELD"><ellipse cx="1073.5" cy="407.387" fill="none" rx="3.125" ry="3.125" style="stroke:#038048;stroke-width:1.0417;"/></g><text fill="#000000" font-family="'Arial'" font-size="14.5833" lengthAdjust="spacing" textLength="79.482" x="1082.875" y="410.8732">WorkOrder</text><text fill="#000000" font-family="'Arial'" font-size="14.5833" lengthAdjust="spacing" textLength="4.6356" x="1162.357" y="410.8732">&#160;</text><text fill="#000000" font-family="'Arial'" font-size="14.5833" lengthAdjust="spacing" textLength="4.9133" x="1166.9926" y="410.8732">:</text><text fill="#000000" font-family="'Arial'" font-size="14.5833" lengthAdjust="spacing" textLength="4.6356" x="1171.906" y="410.8732">&#160;</text><text fill="#000000" font-family="'Arial'" font-size="14.5833" lengthAdjust="spacing" textLength="79.482" x="1176.5416" y="410.8732">WorkOrder</text><g data-visibility-modifier="PUBLIC_FIELD"><ellipse cx="1073.5" cy="432.8509" fill="none" rx="3.125" ry="3.125" style="stroke:#038048;stroke-width:1.0417;"/></g><text fill="#000000" font-family="'Arial'" font-size="14.5833" lengthAdjust="spacing" textLength="205.8543" x="1082.875" y="427.8491">TransitionVerbPresentTense</text><text fill="#000000" font-family="'Arial'" font-size="14.5833" lengthAdjust="spacing" textLength="4.9133" x="1082.875" y="444.825">:</text><text fill="#000000" font-family="'Arial'" font-size="14.5833" lengthAdjust="spacing" textLength="4.6356" x="1087.7883" y="444.825">&#160;</text><text fill="#000000" font-family="'Arial'" font-size="14.5833" lengthAdjust="spacing" textLength="41.863" x="1092.424" y="444.825">string</text><g data-visibility-modifier="PUBLIC_FIELD"><ellipse cx="1073.5" cy="458.3148" fill="none" rx="3.125" ry="3.125" style="stroke:#038048;stroke-width:1.0417;"/></g><text fill="#000000" font-family="'Arial'" font-size="14.5833" lengthAdjust="spacing" textLength="111.8744" x="1082.875" y="461.8009">DebugMessage</text><text fill="#000000" font-family="'Arial'" font-size="14.5833" lengthAdjust="spacing" textLength="4.6356" x="1194.7494" y="461.8009">&#160;</text><text fill="#000000" font-family="'Arial'" font-size="14.5833" lengthAdjust="spacing" textLength="4.9133" x="1199.385" y="461.8009">:</text><text fill="#000000" font-family="'Arial'" font-size="14.5833" lengthAdjust="spacing" textLength="4.6356" x="1204.2983" y="461.8009">&#160;</text><text fill="#000000" font-family="'Arial'" font-size="14.5833" lengthAdjust="spacing" textLength="41.863" x="1208.934" y="461.8009">string</text><line style="stroke:#2B7A78;stroke-width:0.5208;" x1="1063.0833" x2="1293.9376" y1="469.4069" y2="469.4069"/></g><!--class WorkOrder--><g class="entity" data-qualified-name="WorkOrder" data-source-line="72" id="ent0024"><rect fill="#FFFFFF" height="50" rx="2.6042" ry="2.6042" style="stroke:#2B7A78;stroke-width:0.5208;" width="112.8153" x="1046.0521" y="674.6953"/><ellipse cx="1061.6771" cy="691.362" fill="#ADD1B2" rx="11.4583" ry="11.4583" style="stroke:#181818;stroke-width:1.0417;"/><path d="M1064.7695,697.2376 Q1064.1673,697.5469 1063.5,697.6934 Q1062.8327,697.8561 1062.1003,697.8561 Q1059.4961,697.8561 1058.1126,696.1471 Q1056.7454,694.4219 1056.7454,691.1667 Q1056.7454,687.9115 1058.1126,686.1862 Q1059.4961,684.4609 1062.1003,684.4609 Q1062.8327,684.4609 1063.5,684.6237 Q1064.1836,684.7865 1064.7695,685.0957 L1064.7695,687.9277 Q1064.1185,687.3255 1063.5,687.0488 Q1062.8815,686.7559 1062.2305,686.7559 Q1060.8307,686.7559 1060.1146,687.8789 Q1059.3984,688.9857 1059.3984,691.1667 Q1059.3984,693.3477 1060.1146,694.4707 Q1060.8307,695.5775 1062.2305,695.5775 Q1062.8815,695.5775 1063.5,695.3008 Q1064.1185,695.0078 1064.7695,694.4056 L1064.7695,697.2376 Z " fill="#000000"/><text fill="#000000" font-family="'Arial'" font-size="14.5833" lengthAdjust="spacing" textLength="79.482" x="1076.2604" y="696.4106">WorkOrder</text><line style="stroke:#2B7A78;stroke-width:0.5208;" x1="1047.0938" x2="1157.8258" y1="708.0286" y2="708.0286"/><line style="stroke:#2B7A78;stroke-width:0.5208;" x1="1047.0938" x2="1157.8258" y1="716.362" y2="716.362"/></g><!--class Employee--><g class="entity" data-qualified-name="Employee" data-source-line="73" id="ent0026"><rect fill="#FFFFFF" height="50" rx="2.6042" ry="2.6042" style="stroke:#2B7A78;stroke-width:0.5208;" width="105.5593" x="855.9375" y="674.6953"/><ellipse cx="871.5625" cy="691.362" fill="#ADD1B2" rx="11.4583" ry="11.4583" style="stroke:#181818;stroke-width:1.0417;"/><path d="M874.6549,697.2376 Q874.0527,697.5469 873.3854,697.6934 Q872.7181,697.8561 871.9857,697.8561 Q869.3815,697.8561 867.998,696.1471 Q866.6309,694.4219 866.6309,691.1667 Q866.6309,687.9115 867.998,686.1862 Q869.3815,684.4609 871.9857,684.4609 Q872.7181,684.4609 873.3854,684.6237 Q874.069,684.7865 874.6549,685.0957 L874.6549,687.9277 Q874.0039,687.3255 873.3854,687.0488 Q872.7669,686.7559 872.1159,686.7559 Q870.7161,686.7559 870,687.8789 Q869.2839,688.9857 869.2839,691.1667 Q869.2839,693.3477 870,694.4707 Q870.7161,695.5775 872.1159,695.5775 Q872.7669,695.5775 873.3854,695.3008 Q874.0039,695.0078 874.6549,694.4056 L874.6549,697.2376 Z " fill="#000000"/><text fill="#000000" font-family="'Arial'" font-size="14.5833" lengthAdjust="spacing" textLength="72.226" x="886.1458" y="696.4106">Employee</text><line style="stroke:#2B7A78;stroke-width:0.5208;" x1="856.9792" x2="960.4551" y1="708.0286" y2="708.0286"/><line style="stroke:#2B7A78;stroke-width:0.5208;" x1="856.9792" x2="960.4551" y1="716.362" y2="716.362"/></g><!--link SaveDraftCommand to StateCommandBase--><g class="link" data-entity-1="ent0003" data-entity-2="ent0002" data-link-type="extension" data-source-line="66" id="lnk20"><path codeLine="66" d="M220.8125,161.5391 C226.9271,164.0391 233,166.4974 238.9271,168.8516 C431.0625,245.1536 639.8542,319.8047 774.1147,366.7839" fill="none" id="SaveDraftCommand-to-StateCommandBase" style="stroke:#666666;stroke-width:1.0417;"/><polygon fill="none" points="791.8125,372.9766,776.1789,360.8846,772.0504,372.6832,791.8125,372.9766" style="stroke:#666666;stroke-width:1.0417;"/></g><!--link DraftToAssignedCommand to StateCommandBase--><g class="link" data-entity-1="ent0007" data-entity-2="ent0002" data-link-type="extension" data-source-line="67" id="lnk21"><path codeLine="67" d="M680.9583,169.1432 C711.9479,202.3932 740.2453,232.7415 778.9848,274.2936" fill="none" id="DraftToAssignedCommand-to-StateCommandBase" style="stroke:#666666;stroke-width:1.0417;"/><polygon fill="none" points="791.7708,288.0078,783.5563,270.0316,774.4134,278.5556,791.7708,288.0078" style="stroke:#666666;stroke-width:1.0417;"/></g><!--link AssignedToInProgressCommand to StateCommandBase--><g class="link" data-entity-1="ent0011" data-entity-2="ent0002" data-link-type="extension" data-source-line="68" id="lnk22"><path codeLine="68" d="M1147.5313,143.8307 C1117.4167,166.2266 1076.1146,199.0286 1044.1354,232.3932 C1037.8854,238.9141 1044.0478,231.6353 1037.9019,238.6249" fill="none" id="AssignedToInProgressCommand-to-StateCommandBase" style="stroke:#666666;stroke-width:1.0417;"/><polygon fill="none" points="1025.5208,252.7057,1042.5956,242.7519,1033.2083,234.4978,1025.5208,252.7057" style="stroke:#666666;stroke-width:1.0417;"/></g><!--link InProgressToCompleteCommand to StateCommandBase--><g class="link" data-entity-1="ent0015" data-entity-2="ent0002" data-link-type="extension" data-source-line="69" id="lnk23"><path codeLine="69" d="M1559.2188,164.4974 C1553.4479,166.0599 1547.7083,167.5182 1542.0521,168.8516 C1324.8854,219.9557 1236.8646,120.0495 1044.1354,232.3932 C1037.6875,236.1536 1046.4147,229.0333 1040.3939,233.5854" fill="none" id="InProgressToCompleteCommand-to-StateCommandBase" style="stroke:#666666;stroke-width:1.0417;"/><polygon fill="none" points="1025.4375,244.8932,1044.1632,238.5708,1036.6246,228.5999,1025.4375,244.8932" style="stroke:#666666;stroke-width:1.0417;"/></g><!--link StateCommandBase to WorkOrder--><g class="link" data-entity-1="ent0002" data-entity-2="ent0024" data-link-type="dependency" data-source-line="72" id="lnk25"><path codeLine="72" d="M1010.0833,596.8932 C1021,613.0391 1032.4167,628.7995 1044.1354,643.4453 C1052.8438,654.3307 1059.0422,660.916 1068.9797,670.041" fill="none" id="StateCommandBase-to-WorkOrder" style="stroke:#666666;stroke-width:1.0417;"/><polygon fill="#666666" points="1073.5833,674.2682,1069.4961,664.8583,1069.747,670.7456,1063.8598,670.9965,1073.5833,674.2682" style="stroke:#666666;stroke-width:1.0417;"/><text fill="#666666" font-family="'Arial'" font-size="12.5" lengthAdjust="spacing" textLength="55.1758" x="1045.1771" y="640.4648">operates</text><text fill="#666666" font-family="'Arial'" font-size="12.5" lengthAdjust="spacing" textLength="3.9734" x="1100.3529" y="640.4648">&#160;</text><text fill="#666666" font-family="'Arial'" font-size="12.5" lengthAdjust="spacing" textLength="15.5701" x="1104.3263" y="640.4648">on</text></g><!--link StateCommandBase to Employee--><g class="link" data-entity-1="ent0002" data-entity-2="ent0026" data-link-type="dependency" data-source-line="73" id="lnk27"><path codeLine="73" d="M908.7188,596.8411 C908.7188,627.5182 908.7188,649.237 908.7188,668.0703" fill="none" id="StateCommandBase-to-Employee" style="stroke:#666666;stroke-width:1.0417;"/><polygon fill="#666666" points="908.7188,674.3203,912.8854,664.9453,908.7188,669.112,904.5521,664.9453,908.7188,674.3203" style="stroke:#666666;stroke-width:1.0417;"/><text fill="#666666" font-family="'Arial'" font-size="12.5" lengthAdjust="spacing" textLength="75.9338" x="909.7604" y="640.4648">CurrentUser</text></g><!--link StateCommandResult to WorkOrder--><g class="link" data-entity-1="ent0019" data-entity-2="ent0024" data-link-type="dependency" data-source-line="74" id="lnk28"><path codeLine="74" d="M1168.7188,477.9766 C1160.5104,524.3724 1147.125,588.7995 1128.5104,643.4453 C1124.9479,653.8828 1122.7426,659.3343 1118.0968,668.8031" fill="none" id="StateCommandResult-to-WorkOrder" style="stroke:#666666;stroke-width:1.0417;"/><polygon fill="#666666" points="1115.3438,674.4141,1123.214,667.8329,1117.6379,669.7382,1115.7326,664.1622,1115.3438,674.4141" style="stroke:#666666;stroke-width:1.0417;"/><text fill="#666666" font-family="'Arial'" font-size="12.5" lengthAdjust="spacing" textLength="52.9114" x="1133.4792" y="640.4648">contains</text></g><g class="legend" data-source-line="34"><rect fill="none" height="116.4388" rx="7.8125" ry="7.8125" style="stroke:#145A57;stroke-width:1.0417;" width="799.1414" x="613.8042" y="743.4453"/><text fill="#000000" font-family="'Arial'" font-size="14.5833" font-weight="bold" lengthAdjust="spacing" textLength="60.3343" x="624.0897" y="764.2736">Legend</text><text fill="#000000" font-family="'Arial'" font-size="14.5833" font-weight="bold" lengthAdjust="spacing" textLength="92.6554" x="694.5781" y="764.2736">description</text><text fill="#000000" font-family="'Arial'" font-size="14.5833" lengthAdjust="spacing" textLength="53.8259" x="623.6482" y="781.2495">Legend</text><text fill="#000000" font-family="'Arial'" font-size="14.5833" lengthAdjust="spacing" textLength="568.1234" x="694.1367" y="781.2495">{note: StateCommandBase: validates and executes guarded state transitions</text><text fill="#000000" font-family="'Arial'" font-size="14.5833" lengthAdjust="spacing" textLength="315.094" x="689.501" y="798.2254">SaveDraftCommand: creates/updates draft</text><text fill="#000000" font-family="'Arial'" font-size="14.5833" lengthAdjust="spacing" textLength="718.2363" x="689.501" y="815.2013">DraftToAssignedCommand: assigns to an employee; may produce WorkOrderAssignedToBotEvent</text><text fill="#000000" font-family="'Arial'" font-size="14.5833" lengthAdjust="spacing" textLength="402.5299" x="689.501" y="832.1772">AssignedToInProgressCommand: assignee begins work</text><text fill="#000000" font-family="'Arial'" font-size="14.5833" lengthAdjust="spacing" textLength="443.4743" x="689.501" y="849.1531">InProgressToCompleteCommand: assignee completes work}</text><line style="stroke:#000000;stroke-width:1.0417;" x1="619.0126" x2="1407.7373" y1="750.737" y2="750.737"/><line style="stroke:#000000;stroke-width:1.0417;" x1="619.0126" x2="1407.7373" y1="767.7129" y2="767.7129"/><line style="stroke:#000000;stroke-width:1.0417;" x1="619.0126" x2="1407.7373" y1="852.5924" y2="852.5924"/><line style="stroke:#000000;stroke-width:1.0417;" x1="619.0126" x2="619.0126" y1="750.737" y2="852.5924"/><line style="stroke:#000000;stroke-width:1.0417;" x1="689.501" x2="689.501" y1="750.737" y2="852.5924"/><line style="stroke:#000000;stroke-width:1.0417;" x1="1407.7373" x2="1407.7373" y1="750.737" y2="852.5924"/></g><g class="footer" data-source-line="27"><text fill="#888888" font-family="'Arial'" font-size="10.4167" lengthAdjust="spacing" textLength="115.7379" x="955.506" y="883.0948">Diagram version: v1.0</text></g><?plantuml-src jLRRJjj047ttLqnvQL1ht0jFAKe58KL8t0I1laIgDkl1tjRUjNRMNDHMwaVq2_ibdRKTOiKc0gdb1MldUiwSdGr9aI6yYzu74hL32ocA66q0_3VUXbqhK-LGkjBY43uR-mrEBTlXufuSvl3drs-uSC8XH30sUIvqJ07gkCaIl51QPcMCfSqWTQwWOHHPSRkLA9UMyvBGIiDbjTkI9e_66GfxZ8Ausf6OKpGtnacH5s71NThSXBVSWV4DK1GRIP5ezHUYJeMMc7EwsX9nYqN6tL74_xGhyonqAJji5VpvpEREbHGsDYSA2yoYyNPuvbDU7Xz55hblmkXj-8RFlp0FXT4-hAeIEEMOuYvtLF4c6zPWq7o1cNzbGBGP14o1iq8wa9aWgebkMDxZWh2pOr4o7QCHVEU9lV8rwXBrhAflRnYNrd93brIP9aoAkKVqbYhdr0fDoYcZ9pVinYw7VUSVVS3ox0hj_CmYiMMAcjiPCYIhTDBZ9gZ7vm3T7YPA-reb3JRRNTTdZTT4n-jz3kbAP2gkpAoPp9yT2oTJf0Mj9o9VLc_xJUvGbWu7rQplFFWsp-Fwr0VS61K7FuEW6OQumNqhhbtZs1d6i_DgmtAmAaaTcEjEVavvKB80Xs1qTW_Ied363_T2nIpzwslM3CD3Hp3sDeptlRnkKzIGAoBFELzCy5KM6AhyKxFBraHZ_9-Gz5VfnmDIQ12LvogqN3HUk5J08kVKx1bNQxS2N6T0X5GGi0cioR03VnbzgC-iILZBrCj11zAQo1LSYquwnPU1K-CtHeOFZFxh0QmfzLYtlR9gGYjXTV2qEpf7AZFtzFNqn9soZ_CoEMOO8caP6ExBvWrQR52bKxJA-SSWwDpJCFmnwgpIu96hqE-yJZZz4UkctH_1eBYCaKfuNYZeBFym746RKLEWzKyTJxBVUR7ssRVr7WGzWrjDxNKd53SH74qE9YVxWuqZJ5W06wytLYkn1lqchXhnuB2MBa7YPOPny-gvXudJJA-EQDZSSuhAeiuKU-jCzmzfsCYMm1ck2TZW_52jZCAQk9HhTyPChndeSBbCvlwn8l2_GMPwpKHR8RAnr54Rcy6dqzFfv7om-HS0?></g></svg>