<?plantuml 1.2026.2?><svg xmlns="http://www.w3.org/2000/svg" xmlns:xlink="http://www.w3.org/1999/xlink" contentStyleType="text/css" data-diagram-type="STATE" height="161px" preserveAspectRatio="none" style="width:1321px;height:161px;background:#FFFFFF;" version="1.1" viewBox="0 0 1321 161" width="1321px" zoomAndPan="magnify"><title>Work Order State Transitions</title><defs/><g><g class="title" data-source-line="1"><text fill="#000000" font-family="sans-serif" font-size="14" font-weight="bold" lengthAdjust="spacing" textLength="231.9434" x="537.9933" y="22.9951">Work Order State Transitions</text></g><g class="start_entity" data-qualified-name=".start." data-source-line="5" id="ent0002"><ellipse cx="16" cy="130.2969" fill="#222222" rx="10" ry="10" style="stroke:#222222;stroke-width:1;"/></g><g class="entity" data-qualified-name="Draft" id="ent0003"><rect fill="#F1F1F1" height="50" rx="12.5" ry="12.5" style="stroke:#181818;stroke-width:0.5;" width="55.5332" x="131" y="105.2969"/><line style="stroke:#181818;stroke-width:0.5;" x1="131" x2="186.5332" y1="131.5938" y2="131.5938"/><text fill="#000000" font-family="sans-serif" font-size="14" lengthAdjust="spacing" textLength="35.5332" x="141" y="123.292">Draft</text></g><g class="entity" data-qualified-name="Assigned" id="ent0006"><rect fill="#F1F1F1" height="50" rx="12.5" ry="12.5" style="stroke:#181818;stroke-width:0.5;" width="83.3145" x="422.53" y="105.2969"/><line style="stroke:#181818;stroke-width:0.5;" x1="422.53" x2="505.8445" y1="131.5938" y2="131.5938"/><text fill="#000000" font-family="sans-serif" font-size="14" lengthAdjust="spacing" textLength="63.3145" x="432.53" y="123.292">Assigned</text></g><g class="entity" data-qualified-name="InProgress" id="ent0008"><rect fill="#F1F1F1" height="50" rx="12.5" ry="12.5" style="stroke:#181818;stroke-width:0.5;" width="93.6094" x="776.85" y="105.2969"/><line style="stroke:#181818;stroke-width:0.5;" x1="776.85" x2="870.4594" y1="131.5938" y2="131.5938"/><text fill="#000000" font-family="sans-serif" font-size="14" lengthAdjust="spacing" textLength="73.6094" x="786.85" y="123.292">InProgress</text></g><g class="entity" data-qualified-name="Complete" id="ent0010"><rect fill="#F1F1F1" height="50" rx="12.5" ry="12.5" style="stroke:#181818;stroke-width:0.5;" width="87.4707" x="1145.46" y="105.2969"/><line style="stroke:#181818;stroke-width:0.5;" x1="1145.46" x2="1232.9307" y1="131.5938" y2="131.5938"/><text fill="#000000" font-family="sans-serif" font-size="14" lengthAdjust="spacing" textLength="67.4707" x="1155.46" y="123.292">Complete</text></g><g class="end_entity" data-qualified-name=".end." data-source-line="14" id="ent0012"><ellipse cx="1304.93" cy="130.2969" fill="none" rx="11" ry="11" style="stroke:#222222;stroke-width:1;"/><ellipse cx="1304.93" cy="130.2969" fill="#222222" rx="6" ry="6" style="stroke:#222222;stroke-width:1;"/></g><!--link *start* to Draft--><g class="link" data-entity-1="ent0002" data-entity-2="ent0003" data-link-type="dependency" data-source-line="5" id="lnk4"><path d="M26.24,130.2969 C47.09,130.2969 92.51,130.2969 124.53,130.2969" fill="none" id="*start*-to-Draft" style="stroke:#181818;stroke-width:1;"/><polygon fill="#181818" points="130.53,130.2969,121.53,126.2969,125.53,130.2969,121.53,134.2969,130.53,130.2969" style="stroke:#181818;stroke-width:1;"/><text fill="#000000" font-family="sans-serif" font-size="13" lengthAdjust="spacing" textLength="43.4814" x="57" y="126.3638">Create</text></g><!--link Draft to Draft--><g class="link" data-entity-1="ent0003" data-entity-2="ent0003" data-link-type="dependency" data-source-line="7" id="lnk5"><path d="M145.19,105.0169 C141.07,87.5269 145.6,70.2969 158.77,70.2969 C171.94,70.2969 177.8326,81.686 173.7226,99.176" fill="none" id="Draft-to-Draft" style="stroke:#181818;stroke-width:1;"/><polygon fill="#181818" points="172.35,105.0169,178.3028,97.1706,173.4938,100.1495,170.5149,95.3405,172.35,105.0169" style="stroke:#181818;stroke-width:1;"/><text fill="#000000" font-family="sans-serif" font-size="13" lengthAdjust="spacing" textLength="131.7202" x="93.27" y="61.3638">SaveDraftCommand</text></g><!--link Draft to Assigned--><g class="link" data-entity-1="ent0003" data-entity-2="ent0006" data-link-type="dependency" data-source-line="8" id="lnk7"><path d="M186.96,130.2969 C240.34,130.2969 353.12,130.2969 416.12,130.2969" fill="none" id="Draft-to-Assigned" style="stroke:#181818;stroke-width:1;"/><polygon fill="#181818" points="422.12,130.2969,413.12,126.2969,417.12,130.2969,413.12,134.2969,422.12,130.2969" style="stroke:#181818;stroke-width:1;"/><text fill="#000000" font-family="sans-serif" font-size="13" lengthAdjust="spacing" textLength="174.4971" x="217.53" y="126.3638">DraftToAssignedCommand</text></g><!--link Assigned to InProgress--><g class="link" data-entity-1="ent0006" data-entity-2="ent0008" data-link-type="dependency" data-source-line="10" id="lnk9"><path d="M506.2,130.2969 C573.32,130.2969 700.18,130.2969 770.5,130.2969" fill="none" id="Assigned-to-InProgress" style="stroke:#181818;stroke-width:1;"/><polygon fill="#181818" points="776.5,130.2969,767.5,126.2969,771.5,130.2969,767.5,134.2969,776.5,130.2969" style="stroke:#181818;stroke-width:1;"/><text fill="#000000" font-family="sans-serif" font-size="13" lengthAdjust="spacing" textLength="209.8535" x="536.85" y="126.3638">AssignedToInProgressCommand</text></g><!--link InProgress to Complete--><g class="link" data-entity-1="ent0008" data-entity-2="ent0010" data-link-type="dependency" data-source-line="12" id="lnk11"><path d="M870.69,130.2969 C941.48,130.2969 1070.08,130.2969 1139.07,130.2969" fill="none" id="InProgress-to-Complete" style="stroke:#181818;stroke-width:1;"/><polygon fill="#181818" points="1145.07,130.2969,1136.07,126.2969,1140.07,130.2969,1136.07,134.2969,1145.07,130.2969" style="stroke:#181818;stroke-width:1;"/><text fill="#000000" font-family="sans-serif" font-size="13" lengthAdjust="spacing" textLength="213.7129" x="901.46" y="126.3638">InProgressToCompleteCommand</text></g><!--link Complete to *end*--><g class="link" data-entity-1="ent0010" data-entity-2="ent0012" data-link-type="dependency" data-source-line="14" id="lnk13"><path d="M1233.19,130.2969 C1255.08,130.2969 1273.89,130.2969 1287.54,130.2969" fill="none" id="Complete-to-*end*" style="stroke:#181818;stroke-width:1;"/><polygon fill="#181818" points="1293.54,130.2969,1284.54,126.2969,1288.54,130.2969,1284.54,134.2969,1293.54,130.2969" style="stroke:#181818;stroke-width:1;"/></g><?plantuml-src JO_12i8m38RlUOgSXRt03eBCYoU55JmC3yN6MTmQIOFFRpjfxItv_-yBHBqkX5UM5vx5aU2eLWcDs12zUWuHOA67eZAAdv-ApWlTSmCmxMxOTNiyYar4ZuDGaW5-UzkCzaFRFF2wsk0Qv12ZdmEvH6sXuP8K5YgI-LEu2Cz2CIQZD8R_STKQCeifVo-KdkkR6uPBNBNAPIcz25y0?></g></svg>