<?plantuml 1.2026.2?><svg xmlns="http://www.w3.org/2000/svg" xmlns:xlink="http://www.w3.org/1999/xlink" contentStyleType="text/css" data-diagram-type="CLASS" height="480.6667px" preserveAspectRatio="none" style="width:708px;height:480px;background:#FFFFFF;" version="1.1" viewBox="0 0 708 480" width="708.6667px" zoomAndPan="magnify"><title>Work Order System state commands (command objects)</title><defs/><g><g class="header" data-source-line="3"><text fill="#888888" font-family="sans-serif" font-size="6.6667" lengthAdjust="spacing" textLength="194.694" x="252.4671" y="6.1882">C4 Architecture: Work Order System &#8212; State / Commands</text></g><g class="title" data-source-line="9"><text fill="#000000" font-family="sans-serif" font-size="9.3333" font-weight="bold" lengthAdjust="spacing" textLength="297.4453" x="201.0915" y="23.7572">Work Order System state commands (command objects)</text></g><!--class StateCommandBase--><g class="entity" data-qualified-name="StateCommandBase" data-source-line="11" id="ent0002"><rect fill="#F1F1F1" height="233.0729" rx="1.6667" ry="1.6667" style="stroke:#181818;stroke-width:0.3333;" width="149.0801" x="254.3733" y="148.7317"/><ellipse cx="278.9283" cy="162.1535" fill="#A9DCDF" rx="7.3333" ry="7.3333" style="stroke:#181818;stroke-width:0.6667;"/><path d="M279.0012,159.0494 L278.2304,162.4348 L279.7825,162.4348 L279.0012,159.0494 Z M278.0116,157.5598 L280.0012,157.5598 L282.2408,165.8202 L280.6054,165.8202 L280.095,163.7785 L277.9075,163.7785 L277.4075,165.8202 L275.7825,165.8202 L278.0116,157.5598 Z " fill="#000000"/><text fill="#000000" font-family="sans-serif" font-size="8" font-style="italic" lengthAdjust="spacing" textLength="35.7461" x="321.3242" y="159.4908">&#171;record&#187;</text><text fill="#000000" font-family="sans-serif" font-size="9.3333" font-style="italic" lengthAdjust="spacing" textLength="95.4023" x="291.4961" y="170.0409">StateCommandBase</text><line style="stroke:#181818;stroke-width:0.3333;" x1="255.04" x2="402.7867" y1="175.5754" y2="175.5754"/><g data-visibility-modifier="PUBLIC_FIELD"><ellipse cx="261.7067" cy="184.6744" fill="none" rx="2" ry="2" style="stroke:#038048;stroke-width:0.6667;"/></g><text fill="#000000" font-family="sans-serif" font-size="9.3333" lengthAdjust="spacing" textLength="50.8685" x="267.7067" y="186.9055">WorkOrder</text><text fill="#000000" font-family="sans-serif" font-size="9.3333" lengthAdjust="spacing" textLength="2.9668" x="318.5752" y="186.9055">&#160;</text><text fill="#000000" font-family="sans-serif" font-size="9.3333" lengthAdjust="spacing" textLength="3.1445" x="321.542" y="186.9055">:</text><text fill="#000000" font-family="sans-serif" font-size="9.3333" lengthAdjust="spacing" textLength="2.9668" x="324.6865" y="186.9055">&#160;</text><text fill="#000000" font-family="sans-serif" font-size="9.3333" lengthAdjust="spacing" textLength="50.8685" x="327.6533" y="186.9055">WorkOrder</text><g data-visibility-modifier="PUBLIC_FIELD"><ellipse cx="261.7067" cy="195.539" fill="none" rx="2" ry="2" style="stroke:#038048;stroke-width:0.6667;"/></g><text fill="#000000" font-family="sans-serif" font-size="9.3333" lengthAdjust="spacing" textLength="56.6973" x="267.7067" y="197.7701">CurrentUser</text><text fill="#000000" font-family="sans-serif" font-size="9.3333" lengthAdjust="spacing" textLength="2.9668" x="324.4039" y="197.7701">&#160;</text><text fill="#000000" font-family="sans-serif" font-size="9.3333" lengthAdjust="spacing" textLength="3.1445" x="327.3707" y="197.7701">:</text><text fill="#000000" font-family="sans-serif" font-size="9.3333" lengthAdjust="spacing" textLength="2.9668" x="330.5153" y="197.7701">&#160;</text><text fill="#000000" font-family="sans-serif" font-size="9.3333" lengthAdjust="spacing" textLength="46.2246" x="333.4821" y="197.7701">Employee</text><g data-visibility-modifier="PUBLIC_FIELD"><ellipse cx="261.7067" cy="211.8358" fill="none" rx="2" ry="2" style="stroke:#038048;stroke-width:0.6667;"/></g><text fill="#000000" font-family="sans-serif" font-size="9.3333" lengthAdjust="spacing" textLength="97.9499" x="267.7067" y="208.6347">StateTransitionEvent</text><text fill="#000000" font-family="sans-serif" font-size="9.3333" lengthAdjust="spacing" textLength="2.9668" x="365.6565" y="208.6347">&#160;</text><text fill="#000000" font-family="sans-serif" font-size="9.3333" lengthAdjust="spacing" textLength="3.1445" x="368.6233" y="208.6347">:</text><text fill="#000000" font-family="sans-serif" font-size="9.3333" lengthAdjust="spacing" textLength="105.6563" x="267.7067" y="219.4992">IStateTransitionEvent?</text><g data-visibility-modifier="PUBLIC_FIELD"><ellipse cx="261.7067" cy="233.565" fill="none" rx="2" ry="2" style="stroke:#038048;stroke-width:0.6667;"/></g><text fill="#000000" font-family="sans-serif" font-size="9.3333" lengthAdjust="spacing" textLength="131.7467" x="267.7067" y="230.3638">TransitionVerbPresentTense</text><text fill="#000000" font-family="sans-serif" font-size="9.3333" lengthAdjust="spacing" textLength="3.1445" x="267.7067" y="241.2284">:</text><text fill="#000000" font-family="sans-serif" font-size="9.3333" lengthAdjust="spacing" textLength="2.9668" x="270.8512" y="241.2284">&#160;</text><text fill="#000000" font-family="sans-serif" font-size="9.3333" lengthAdjust="spacing" textLength="26.7923" x="273.818" y="241.2284">string</text><g data-visibility-modifier="PUBLIC_FIELD"><ellipse cx="261.7067" cy="255.2942" fill="none" rx="2" ry="2" style="stroke:#038048;stroke-width:0.6667;"/></g><text fill="#000000" font-family="sans-serif" font-size="9.3333" lengthAdjust="spacing" textLength="116.2292" x="267.7067" y="252.093">TransitionVerbPastTense</text><text fill="#000000" font-family="sans-serif" font-size="9.3333" lengthAdjust="spacing" textLength="2.9668" x="383.9358" y="252.093">&#160;</text><text fill="#000000" font-family="sans-serif" font-size="9.3333" lengthAdjust="spacing" textLength="3.1445" x="386.9026" y="252.093">:</text><text fill="#000000" font-family="sans-serif" font-size="9.3333" lengthAdjust="spacing" textLength="26.7923" x="267.7067" y="262.9576">string</text><line style="stroke:#181818;stroke-width:0.3333;" x1="255.04" x2="402.7867" y1="267.8254" y2="267.8254"/><g data-visibility-modifier="PUBLIC_METHOD"><ellipse cx="261.7067" cy="282.3567" fill="#84BE84" rx="2" ry="2" style="stroke:#038048;stroke-width:0.6667;"/></g><text fill="#000000" font-family="sans-serif" font-size="9.3333" lengthAdjust="spacing" textLength="80.2357" x="267.7067" y="279.1555">GetBeginStatus()</text><text fill="#000000" font-family="sans-serif" font-size="9.3333" lengthAdjust="spacing" textLength="2.9668" x="347.9423" y="279.1555">&#160;</text><text fill="#000000" font-family="sans-serif" font-size="9.3333" lengthAdjust="spacing" textLength="3.1445" x="350.9091" y="279.1555">:</text><text fill="#000000" font-family="sans-serif" font-size="9.3333" lengthAdjust="spacing" textLength="80.6094" x="267.7067" y="290.0201">WorkOrderStatus</text><g data-visibility-modifier="PUBLIC_METHOD"><ellipse cx="261.7067" cy="304.0858" fill="#84BE84" rx="2" ry="2" style="stroke:#038048;stroke-width:0.6667;"/></g><text fill="#000000" font-family="sans-serif" font-size="9.3333" lengthAdjust="spacing" textLength="71.3945" x="267.7067" y="300.8847">GetEndStatus()</text><text fill="#000000" font-family="sans-serif" font-size="9.3333" lengthAdjust="spacing" textLength="2.9668" x="339.1012" y="300.8847">&#160;</text><text fill="#000000" font-family="sans-serif" font-size="9.3333" lengthAdjust="spacing" textLength="3.1445" x="342.068" y="300.8847">:</text><text fill="#000000" font-family="sans-serif" font-size="9.3333" lengthAdjust="spacing" textLength="80.6094" x="267.7067" y="311.7492">WorkOrderStatus</text><g data-visibility-modifier="PUBLIC_METHOD"><ellipse cx="261.7067" cy="320.3827" fill="#84BE84" rx="2" ry="2" style="stroke:#038048;stroke-width:0.6667;"/></g><text fill="#000000" font-family="sans-serif" font-size="9.3333" lengthAdjust="spacing" textLength="38.1126" x="267.7067" y="322.6138">IsValid()</text><text fill="#000000" font-family="sans-serif" font-size="9.3333" lengthAdjust="spacing" textLength="2.9668" x="305.8193" y="322.6138">&#160;</text><text fill="#000000" font-family="sans-serif" font-size="9.3333" lengthAdjust="spacing" textLength="3.1445" x="308.7861" y="322.6138">:</text><text fill="#000000" font-family="sans-serif" font-size="9.3333" lengthAdjust="spacing" textLength="2.9668" x="311.9306" y="322.6138">&#160;</text><text fill="#000000" font-family="sans-serif" font-size="9.3333" lengthAdjust="spacing" textLength="19.9382" x="314.8974" y="322.6138">bool</text><g data-visibility-modifier="PUBLIC_METHOD"><ellipse cx="261.7067" cy="336.6796" fill="#84BE84" rx="2" ry="2" style="stroke:#038048;stroke-width:0.6667;"/></g><text fill="#000000" font-family="sans-serif" font-size="9.3333" lengthAdjust="spacing" textLength="116.8444" x="267.7067" y="333.4784">Matches(commandName</text><text fill="#000000" font-family="sans-serif" font-size="9.3333" lengthAdjust="spacing" textLength="2.9668" x="384.5511" y="333.4784">&#160;</text><text fill="#000000" font-family="sans-serif" font-size="9.3333" lengthAdjust="spacing" textLength="3.1445" x="387.5179" y="333.4784">:</text><text fill="#000000" font-family="sans-serif" font-size="9.3333" lengthAdjust="spacing" textLength="30.4336" x="267.7067" y="344.343">string)</text><text fill="#000000" font-family="sans-serif" font-size="9.3333" lengthAdjust="spacing" textLength="2.9668" x="298.1403" y="344.343">&#160;</text><text fill="#000000" font-family="sans-serif" font-size="9.3333" lengthAdjust="spacing" textLength="3.1445" x="301.1071" y="344.343">:</text><text fill="#000000" font-family="sans-serif" font-size="9.3333" lengthAdjust="spacing" textLength="2.9668" x="304.2516" y="344.343">&#160;</text><text fill="#000000" font-family="sans-serif" font-size="9.3333" lengthAdjust="spacing" textLength="19.9382" x="307.2184" y="344.343">bool</text><g data-visibility-modifier="PUBLIC_METHOD"><ellipse cx="261.7067" cy="363.841" fill="#84BE84" rx="2" ry="2" style="stroke:#038048;stroke-width:0.6667;"/></g><text fill="#000000" font-family="sans-serif" font-size="9.3333" lengthAdjust="spacing" textLength="76.5944" x="267.7067" y="355.2076">Execute(context</text><text fill="#000000" font-family="sans-serif" font-size="9.3333" lengthAdjust="spacing" textLength="2.9668" x="344.3011" y="355.2076">&#160;</text><text fill="#000000" font-family="sans-serif" font-size="9.3333" lengthAdjust="spacing" textLength="3.1445" x="347.2679" y="355.2076">:</text><text fill="#000000" font-family="sans-serif" font-size="9.3333" lengthAdjust="spacing" textLength="113.0436" x="267.7067" y="366.0722">StateCommandContext)</text><text fill="#000000" font-family="sans-serif" font-size="9.3333" lengthAdjust="spacing" textLength="2.9668" x="380.7503" y="366.0722">&#160;</text><text fill="#000000" font-family="sans-serif" font-size="9.3333" lengthAdjust="spacing" textLength="3.1445" x="383.7171" y="366.0722">:</text><text fill="#000000" font-family="sans-serif" font-size="9.3333" lengthAdjust="spacing" textLength="19.7513" x="267.7067" y="376.9367">void</text></g><!--class SaveDraftCommand--><g class="entity" data-qualified-name="SaveDraftCommand" data-source-line="24" id="ent0003"><rect fill="#F1F1F1" height="70.1042" rx="1.6667" ry="1.6667" style="stroke:#181818;stroke-width:0.3333;" width="136.4883" x="4.6667" y="37.9583"/><ellipse cx="23.9306" cy="51.3802" fill="#ADD1B2" rx="7.3333" ry="7.3333" style="stroke:#181818;stroke-width:0.6667;"/><path d="M25.9098,55.1406 Q25.5244,55.3385 25.0973,55.4323 Q24.6702,55.5365 24.2015,55.5365 Q22.5348,55.5365 21.6494,54.4427 Q20.7744,53.3385 20.7744,51.2552 Q20.7744,49.1719 21.6494,48.0677 Q22.5348,46.9635 24.2015,46.9635 Q24.6702,46.9635 25.0973,47.0677 Q25.5348,47.1719 25.9098,47.3698 L25.9098,49.1823 Q25.4931,48.7969 25.0973,48.6198 Q24.7015,48.4323 24.2848,48.4323 Q23.389,48.4323 22.9306,49.151 Q22.4723,49.8594 22.4723,51.2552 Q22.4723,52.651 22.9306,53.3698 Q23.389,54.0781 24.2848,54.0781 Q24.7015,54.0781 25.0973,53.901 Q25.4931,53.7135 25.9098,53.3281 L25.9098,55.1406 Z " fill="#000000"/><text fill="#000000" font-family="sans-serif" font-size="8" font-style="italic" lengthAdjust="spacing" textLength="35.7461" x="64.7338" y="48.7174">&#171;record&#187;</text><text fill="#000000" font-family="sans-serif" font-size="9.3333" lengthAdjust="spacing" textLength="94.5684" x="35.3226" y="59.2676">SaveDraftCommand</text><line style="stroke:#181818;stroke-width:0.3333;" x1="5.3333" x2="140.4883" y1="64.8021" y2="64.8021"/><line style="stroke:#181818;stroke-width:0.3333;" x1="5.3333" x2="140.4883" y1="70.1354" y2="70.1354"/><g data-visibility-modifier="PUBLIC_METHOD"><ellipse cx="12" cy="90.099" fill="#84BE84" rx="2" ry="2" style="stroke:#038048;stroke-width:0.6667;"/></g><text fill="#000000" font-family="sans-serif" font-size="9.3333" lengthAdjust="spacing" textLength="76.5944" x="18" y="81.4655">Execute(context</text><text fill="#000000" font-family="sans-serif" font-size="9.3333" lengthAdjust="spacing" textLength="2.9668" x="94.5944" y="81.4655">&#160;</text><text fill="#000000" font-family="sans-serif" font-size="9.3333" lengthAdjust="spacing" textLength="3.1445" x="97.5612" y="81.4655">:</text><text fill="#000000" font-family="sans-serif" font-size="9.3333" lengthAdjust="spacing" textLength="113.0436" x="18" y="92.3301">StateCommandContext)</text><text fill="#000000" font-family="sans-serif" font-size="9.3333" lengthAdjust="spacing" textLength="2.9668" x="131.0436" y="92.3301">&#160;</text><text fill="#000000" font-family="sans-serif" font-size="9.3333" lengthAdjust="spacing" textLength="3.1445" x="134.0104" y="92.3301">:</text><text fill="#000000" font-family="sans-serif" font-size="9.3333" lengthAdjust="spacing" textLength="19.7513" x="18" y="103.1947">void</text></g><!--class DraftToAssignedCommand--><g class="entity" data-qualified-name="DraftToAssignedCommand" data-source-line="28" id="ent0004"><rect fill="#F1F1F1" height="70.1042" rx="1.6667" ry="1.6667" style="stroke:#181818;stroke-width:0.3333;" width="146.6133" x="164.2733" y="37.9583"/><ellipse cx="174.2733" cy="51.3802" fill="#ADD1B2" rx="7.3333" ry="7.3333" style="stroke:#181818;stroke-width:0.6667;"/><path d="M176.2525,55.1406 Q175.8671,55.3385 175.44,55.4323 Q175.0129,55.5365 174.5442,55.5365 Q172.8775,55.5365 171.9921,54.4427 Q171.1171,53.3385 171.1171,51.2552 Q171.1171,49.1719 171.9921,48.0677 Q172.8775,46.9635 174.5442,46.9635 Q175.0129,46.9635 175.44,47.0677 Q175.8775,47.1719 176.2525,47.3698 L176.2525,49.1823 Q175.8358,48.7969 175.44,48.6198 Q175.0442,48.4323 174.6275,48.4323 Q173.7317,48.4323 173.2733,49.151 Q172.815,49.8594 172.815,51.2552 Q172.815,52.651 173.2733,53.3698 Q173.7317,54.0781 174.6275,54.0781 Q175.0442,54.0781 175.44,53.901 Q175.8358,53.7135 176.2525,53.3281 L176.2525,55.1406 Z " fill="#000000"/><text fill="#000000" font-family="sans-serif" font-size="8" font-style="italic" lengthAdjust="spacing" textLength="35.7461" x="228.3736" y="48.7174">&#171;record&#187;</text><text fill="#000000" font-family="sans-serif" font-size="9.3333" lengthAdjust="spacing" textLength="125.2799" x="183.6067" y="59.2676">DraftToAssignedCommand</text><line style="stroke:#181818;stroke-width:0.3333;" x1="164.94" x2="310.2199" y1="64.8021" y2="64.8021"/><line style="stroke:#181818;stroke-width:0.3333;" x1="164.94" x2="310.2199" y1="70.1354" y2="70.1354"/><g data-visibility-modifier="PUBLIC_METHOD"><ellipse cx="171.6067" cy="90.099" fill="#84BE84" rx="2" ry="2" style="stroke:#038048;stroke-width:0.6667;"/></g><text fill="#000000" font-family="sans-serif" font-size="9.3333" lengthAdjust="spacing" textLength="76.5944" x="177.6067" y="81.4655">Execute(context</text><text fill="#000000" font-family="sans-serif" font-size="9.3333" lengthAdjust="spacing" textLength="2.9668" x="254.2011" y="81.4655">&#160;</text><text fill="#000000" font-family="sans-serif" font-size="9.3333" lengthAdjust="spacing" textLength="3.1445" x="257.1679" y="81.4655">:</text><text fill="#000000" font-family="sans-serif" font-size="9.3333" lengthAdjust="spacing" textLength="113.0436" x="177.6067" y="92.3301">StateCommandContext)</text><text fill="#000000" font-family="sans-serif" font-size="9.3333" lengthAdjust="spacing" textLength="2.9668" x="290.6503" y="92.3301">&#160;</text><text fill="#000000" font-family="sans-serif" font-size="9.3333" lengthAdjust="spacing" textLength="3.1445" x="293.6171" y="92.3301">:</text><text fill="#000000" font-family="sans-serif" font-size="9.3333" lengthAdjust="spacing" textLength="19.7513" x="177.6067" y="103.1947">void</text></g><!--class AssignedToInProgressCommand--><g class="entity" data-qualified-name="AssignedToInProgressCommand" data-source-line="32" id="ent0005"><rect fill="#F1F1F1" height="37.5104" rx="1.6667" ry="1.6667" style="stroke:#181818;stroke-width:0.3333;" width="171.9974" x="334.2467" y="54.2583"/><ellipse cx="344.2467" cy="67.6802" fill="#ADD1B2" rx="7.3333" ry="7.3333" style="stroke:#181818;stroke-width:0.6667;"/><path d="M346.2258,71.4406 Q345.8404,71.6385 345.4133,71.7323 Q344.9863,71.8365 344.5175,71.8365 Q342.8508,71.8365 341.9654,70.7427 Q341.0904,69.6385 341.0904,67.5552 Q341.0904,65.4719 341.9654,64.3677 Q342.8508,63.2635 344.5175,63.2635 Q344.9863,63.2635 345.4133,63.3677 Q345.8508,63.4719 346.2258,63.6698 L346.2258,65.4823 Q345.8092,65.0969 345.4133,64.9198 Q345.0175,64.7323 344.6008,64.7323 Q343.705,64.7323 343.2467,65.451 Q342.7883,66.1594 342.7883,67.5552 Q342.7883,68.951 343.2467,69.6698 Q343.705,70.3781 344.6008,70.3781 Q345.0175,70.3781 345.4133,70.201 Q345.8092,70.0135 346.2258,69.6281 L346.2258,71.4406 Z " fill="#000000"/><text fill="#000000" font-family="sans-serif" font-size="8" font-style="italic" lengthAdjust="spacing" textLength="35.7461" x="411.039" y="65.0174">&#171;record&#187;</text><text fill="#000000" font-family="sans-serif" font-size="9.3333" lengthAdjust="spacing" textLength="150.6641" x="353.58" y="75.5676">AssignedToInProgressCommand</text><line style="stroke:#181818;stroke-width:0.3333;" x1="334.9133" x2="505.5774" y1="81.1021" y2="81.1021"/><line style="stroke:#181818;stroke-width:0.3333;" x1="334.9133" x2="505.5774" y1="86.4354" y2="86.4354"/></g><!--class InProgressToCompleteCommand--><g class="entity" data-qualified-name="InProgressToCompleteCommand" data-source-line="35" id="ent0006"><rect fill="#F1F1F1" height="70.1042" rx="1.6667" ry="1.6667" style="stroke:#181818;stroke-width:0.3333;" width="174.7682" x="529.5267" y="37.9583"/><ellipse cx="539.5267" cy="51.3802" fill="#ADD1B2" rx="7.3333" ry="7.3333" style="stroke:#181818;stroke-width:0.6667;"/><path d="M541.5058,55.1406 Q541.1204,55.3385 540.6933,55.4323 Q540.2662,55.5365 539.7975,55.5365 Q538.1308,55.5365 537.2454,54.4427 Q536.3704,53.3385 536.3704,51.2552 Q536.3704,49.1719 537.2454,48.0677 Q538.1308,46.9635 539.7975,46.9635 Q540.2662,46.9635 540.6933,47.0677 Q541.1308,47.1719 541.5058,47.3698 L541.5058,49.1823 Q541.0892,48.7969 540.6933,48.6198 Q540.2975,48.4323 539.8808,48.4323 Q538.985,48.4323 538.5267,49.151 Q538.0683,49.8594 538.0683,51.2552 Q538.0683,52.651 538.5267,53.3698 Q538.985,54.0781 539.8808,54.0781 Q540.2975,54.0781 540.6933,53.901 Q541.0892,53.7135 541.5058,53.3281 L541.5058,55.1406 Z " fill="#000000"/><text fill="#000000" font-family="sans-serif" font-size="8" font-style="italic" lengthAdjust="spacing" textLength="35.7461" x="607.7044" y="48.7174">&#171;record&#187;</text><text fill="#000000" font-family="sans-serif" font-size="9.3333" lengthAdjust="spacing" textLength="153.4349" x="548.86" y="59.2676">InProgressToCompleteCommand</text><line style="stroke:#181818;stroke-width:0.3333;" x1="530.1933" x2="703.6282" y1="64.8021" y2="64.8021"/><line style="stroke:#181818;stroke-width:0.3333;" x1="530.1933" x2="703.6282" y1="70.1354" y2="70.1354"/><g data-visibility-modifier="PUBLIC_METHOD"><ellipse cx="536.86" cy="90.099" fill="#84BE84" rx="2" ry="2" style="stroke:#038048;stroke-width:0.6667;"/></g><text fill="#000000" font-family="sans-serif" font-size="9.3333" lengthAdjust="spacing" textLength="76.5944" x="542.86" y="81.4655">Execute(context</text><text fill="#000000" font-family="sans-serif" font-size="9.3333" lengthAdjust="spacing" textLength="2.9668" x="619.4544" y="81.4655">&#160;</text><text fill="#000000" font-family="sans-serif" font-size="9.3333" lengthAdjust="spacing" textLength="3.1445" x="622.4212" y="81.4655">:</text><text fill="#000000" font-family="sans-serif" font-size="9.3333" lengthAdjust="spacing" textLength="113.0436" x="542.86" y="92.3301">StateCommandContext)</text><text fill="#000000" font-family="sans-serif" font-size="9.3333" lengthAdjust="spacing" textLength="2.9668" x="655.9036" y="92.3301">&#160;</text><text fill="#000000" font-family="sans-serif" font-size="9.3333" lengthAdjust="spacing" textLength="3.1445" x="658.8704" y="92.3301">:</text><text fill="#000000" font-family="sans-serif" font-size="9.3333" lengthAdjust="spacing" textLength="19.7513" x="542.86" y="103.1947">void</text></g><!--class StateCommandResult--><g class="entity" data-qualified-name="StateCommandResult" data-source-line="39" id="ent0007"><rect fill="#F1F1F1" height="80.9688" rx="1.6667" ry="1.6667" style="stroke:#181818;stroke-width:0.3333;" width="149.0801" x="81.7067" y="224.785"/><ellipse cx="103.3229" cy="238.2069" fill="#ADD1B2" rx="7.3333" ry="7.3333" style="stroke:#181818;stroke-width:0.6667;"/><path d="M105.302,241.9673 Q104.9166,242.1652 104.4895,242.259 Q104.0625,242.3631 103.5937,242.3631 Q101.927,242.3631 101.0416,241.2694 Q100.1666,240.1652 100.1666,238.0819 Q100.1666,235.9985 101.0416,234.8944 Q101.927,233.7902 103.5937,233.7902 Q104.0625,233.7902 104.4895,233.8944 Q104.927,233.9985 105.302,234.1965 L105.302,236.009 Q104.8854,235.6235 104.4895,235.4465 Q104.0937,235.259 103.677,235.259 Q102.7812,235.259 102.3229,235.9777 Q101.8645,236.686 101.8645,238.0819 Q101.8645,239.4777 102.3229,240.1965 Q102.7812,240.9048 103.677,240.9048 Q104.0937,240.9048 104.4895,240.7277 Q104.8854,240.5402 105.302,240.1548 L105.302,241.9673 Z " fill="#000000"/><text fill="#000000" font-family="sans-serif" font-size="8" font-style="italic" lengthAdjust="spacing" textLength="35.7461" x="148.331" y="235.5441">&#171;record&#187;</text><text fill="#000000" font-family="sans-serif" font-size="9.3333" lengthAdjust="spacing" textLength="101.9329" x="115.2376" y="246.0942">StateCommandResult</text><line style="stroke:#181818;stroke-width:0.3333;" x1="82.3733" x2="230.1201" y1="251.6288" y2="251.6288"/><g data-visibility-modifier="PUBLIC_FIELD"><ellipse cx="89.04" cy="260.7277" fill="none" rx="2" ry="2" style="stroke:#038048;stroke-width:0.6667;"/></g><text fill="#000000" font-family="sans-serif" font-size="9.3333" lengthAdjust="spacing" textLength="50.8685" x="95.04" y="262.9588">WorkOrder</text><text fill="#000000" font-family="sans-serif" font-size="9.3333" lengthAdjust="spacing" textLength="2.9668" x="145.9085" y="262.9588">&#160;</text><text fill="#000000" font-family="sans-serif" font-size="9.3333" lengthAdjust="spacing" textLength="3.1445" x="148.8753" y="262.9588">:</text><text fill="#000000" font-family="sans-serif" font-size="9.3333" lengthAdjust="spacing" textLength="2.9668" x="152.0198" y="262.9588">&#160;</text><text fill="#000000" font-family="sans-serif" font-size="9.3333" lengthAdjust="spacing" textLength="50.8685" x="154.9866" y="262.9588">WorkOrder</text><g data-visibility-modifier="PUBLIC_FIELD"><ellipse cx="89.04" cy="277.0246" fill="none" rx="2" ry="2" style="stroke:#038048;stroke-width:0.6667;"/></g><text fill="#000000" font-family="sans-serif" font-size="9.3333" lengthAdjust="spacing" textLength="131.7467" x="95.04" y="273.8234">TransitionVerbPresentTense</text><text fill="#000000" font-family="sans-serif" font-size="9.3333" lengthAdjust="spacing" textLength="3.1445" x="95.04" y="284.688">:</text><text fill="#000000" font-family="sans-serif" font-size="9.3333" lengthAdjust="spacing" textLength="2.9668" x="98.1845" y="284.688">&#160;</text><text fill="#000000" font-family="sans-serif" font-size="9.3333" lengthAdjust="spacing" textLength="26.7923" x="101.1513" y="284.688">string</text><g data-visibility-modifier="PUBLIC_FIELD"><ellipse cx="89.04" cy="293.3215" fill="none" rx="2" ry="2" style="stroke:#038048;stroke-width:0.6667;"/></g><text fill="#000000" font-family="sans-serif" font-size="9.3333" lengthAdjust="spacing" textLength="71.5996" x="95.04" y="295.5526">DebugMessage</text><text fill="#000000" font-family="sans-serif" font-size="9.3333" lengthAdjust="spacing" textLength="2.9668" x="166.6396" y="295.5526">&#160;</text><text fill="#000000" font-family="sans-serif" font-size="9.3333" lengthAdjust="spacing" textLength="3.1445" x="169.6064" y="295.5526">:</text><text fill="#000000" font-family="sans-serif" font-size="9.3333" lengthAdjust="spacing" textLength="2.9668" x="172.7509" y="295.5526">&#160;</text><text fill="#000000" font-family="sans-serif" font-size="9.3333" lengthAdjust="spacing" textLength="26.7923" x="175.7177" y="295.5526">string</text><line style="stroke:#181818;stroke-width:0.3333;" x1="82.3733" x2="230.1201" y1="300.4204" y2="300.4204"/></g><!--class WorkOrder--><g class="entity" data-qualified-name="WorkOrder" data-source-line="52" id="ent0012"><rect fill="#F1F1F1" height="32" rx="1.6667" ry="1.6667" style="stroke:#181818;stroke-width:0.3333;" width="72.2018" x="160.14" y="431.805"/><ellipse cx="170.14" cy="442.4717" fill="#ADD1B2" rx="7.3333" ry="7.3333" style="stroke:#181818;stroke-width:0.6667;"/><path d="M172.1192,446.2321 Q171.7338,446.43 171.3067,446.5237 Q170.8796,446.6279 170.4108,446.6279 Q168.7442,446.6279 167.8588,445.5342 Q166.9838,444.43 166.9838,442.3467 Q166.9838,440.2633 167.8588,439.1592 Q168.7442,438.055 170.4108,438.055 Q170.8796,438.055 171.3067,438.1592 Q171.7442,438.2633 172.1192,438.4612 L172.1192,440.2737 Q171.7025,439.8883 171.3067,439.7112 Q170.9108,439.5237 170.4942,439.5237 Q169.5983,439.5237 169.14,440.2425 Q168.6817,440.9508 168.6817,442.3467 Q168.6817,443.7425 169.14,444.4612 Q169.5983,445.1696 170.4942,445.1696 Q170.9108,445.1696 171.3067,444.9925 Q171.7025,444.805 172.1192,444.4196 L172.1192,446.2321 Z " fill="#000000"/><text fill="#000000" font-family="sans-serif" font-size="9.3333" lengthAdjust="spacing" textLength="50.8685" x="179.4733" y="445.7028">WorkOrder</text><line style="stroke:#181818;stroke-width:0.3333;" x1="160.8067" x2="231.6752" y1="453.1383" y2="453.1383"/><line style="stroke:#181818;stroke-width:0.3333;" x1="160.8067" x2="231.6752" y1="458.4717" y2="458.4717"/></g><!--class Employee--><g class="entity" data-qualified-name="Employee" data-source-line="53" id="ent0014"><rect fill="#F1F1F1" height="32" rx="1.6667" ry="1.6667" style="stroke:#181818;stroke-width:0.3333;" width="67.5579" x="295.1333" y="431.805"/><ellipse cx="305.1333" cy="442.4717" fill="#ADD1B2" rx="7.3333" ry="7.3333" style="stroke:#181818;stroke-width:0.6667;"/><path d="M307.1125,446.2321 Q306.7271,446.43 306.3,446.5237 Q305.8729,446.6279 305.4042,446.6279 Q303.7375,446.6279 302.8521,445.5342 Q301.9771,444.43 301.9771,442.3467 Q301.9771,440.2633 302.8521,439.1592 Q303.7375,438.055 305.4042,438.055 Q305.8729,438.055 306.3,438.1592 Q306.7375,438.2633 307.1125,438.4612 L307.1125,440.2737 Q306.6958,439.8883 306.3,439.7112 Q305.9042,439.5237 305.4875,439.5237 Q304.5917,439.5237 304.1333,440.2425 Q303.675,440.9508 303.675,442.3467 Q303.675,443.7425 304.1333,444.4612 Q304.5917,445.1696 305.4875,445.1696 Q305.9042,445.1696 306.3,444.9925 Q306.6958,444.805 307.1125,444.4196 L307.1125,446.2321 Z " fill="#000000"/><text fill="#000000" font-family="sans-serif" font-size="9.3333" lengthAdjust="spacing" textLength="46.2246" x="314.4667" y="445.7028">Employee</text><line style="stroke:#181818;stroke-width:0.3333;" x1="295.8" x2="362.0246" y1="453.1383" y2="453.1383"/><line style="stroke:#181818;stroke-width:0.3333;" x1="295.8" x2="362.0246" y1="458.4717" y2="458.4717"/></g><!--link SaveDraftCommand to StateCommandBase--><g class="link" data-entity-1="ent0003" data-entity-2="ent0002" data-link-type="extension" data-source-line="46" id="lnk8"><path codeLine="46" d="M141.3267,103.0583 C186.3533,122.5517 237.7867,145.1783 242.2467,148.7317 C246.2733,151.945 241.4674,147.1549 245.3074,150.7682" fill="none" id="SaveDraftCommand-to-StateCommandBase" style="stroke:#666666;stroke-width:0.6667;"/><polygon fill="none" points="254.0467,158.9917,248.0485,147.8551,242.5662,153.6813,254.0467,158.9917" style="stroke:#666666;stroke-width:0.6667;"/></g><!--link DraftToAssignedCommand to StateCommandBase--><g class="link" data-entity-1="ent0004" data-entity-2="ent0002" data-link-type="extension" data-source-line="47" id="lnk9"><path codeLine="47" d="M254.12,108.2517 C259.7467,120.0183 261.2073,123.0803 268.1739,137.6403" fill="none" id="DraftToAssignedCommand-to-StateCommandBase" style="stroke:#666666;stroke-width:0.6667;"/><polygon fill="none" points="273.3533,148.465,271.7822,135.9138,264.5657,139.3668,273.3533,148.465" style="stroke:#666666;stroke-width:0.6667;"/></g><!--link AssignedToInProgressCommand to StateCommandBase--><g class="link" data-entity-1="ent0005" data-entity-2="ent0002" data-link-type="extension" data-source-line="48" id="lnk10"><path codeLine="48" d="M411.4867,91.985 C404.8133,105.9383 400.1707,115.6327 389.6174,137.6993" fill="none" id="AssignedToInProgressCommand-to-StateCommandBase" style="stroke:#666666;stroke-width:0.6667;"/><polygon fill="none" points="384.44,148.525,393.2259,139.4251,386.0088,135.9736,384.44,148.525" style="stroke:#666666;stroke-width:0.6667;"/></g><!--link InProgressToCompleteCommand to StateCommandBase--><g class="link" data-entity-1="ent0006" data-entity-2="ent0002" data-link-type="extension" data-source-line="49" id="lnk11"><path codeLine="49" d="M564.5867,108.365 C519.5867,138.1983 464.1346,174.9536 413.6212,208.4469" fill="none" id="InProgressToCompleteCommand-to-StateCommandBase" style="stroke:#666666;stroke-width:0.6667;"/><polygon fill="none" points="403.62,215.0783,415.8317,211.7807,411.4108,205.1132,403.62,215.0783" style="stroke:#666666;stroke-width:0.6667;"/></g><!--link StateCommandBase to WorkOrder--><g class="link" data-entity-1="ent0002" data-entity-2="ent0012" data-link-type="dependency" data-source-line="52" id="lnk13"><path codeLine="52" d="M254.0467,368.185 C235.8267,393.0717 220.8427,413.5374 209.9894,428.364" fill="none" id="StateCommandBase-to-WorkOrder" style="stroke:#666666;stroke-width:0.6667;"/><polygon fill="#666666" points="207.6267,431.5917,213.3225,428.3253,209.5956,428.902,209.0189,425.1751,207.6267,431.5917" style="stroke:#666666;stroke-width:0.6667;"/><text fill="#666666" font-family="sans-serif" font-size="8" lengthAdjust="spacing" textLength="35.3125" x="228.9733" y="409.8974">operates</text><text fill="#666666" font-family="sans-serif" font-size="8" lengthAdjust="spacing" textLength="2.543" x="264.2858" y="409.8974">&#160;</text><text fill="#666666" font-family="sans-serif" font-size="8" lengthAdjust="spacing" textLength="9.9648" x="266.8288" y="409.8974">on</text></g><!--link StateCommandBase to Employee--><g class="link" data-entity-1="ent0002" data-entity-2="ent0014" data-link-type="dependency" data-source-line="53" id="lnk15"><path codeLine="53" d="M328.9133,381.9783 C328.9133,401.6117 328.9133,415.5117 328.9133,427.565" fill="none" id="StateCommandBase-to-Employee" style="stroke:#666666;stroke-width:0.6667;"/><polygon fill="#666666" points="328.9133,431.565,331.58,425.565,328.9133,428.2317,326.2467,425.565,328.9133,431.565" style="stroke:#666666;stroke-width:0.6667;"/><text fill="#666666" font-family="sans-serif" font-size="8" lengthAdjust="spacing" textLength="48.5977" x="329.58" y="409.8974">CurrentUser</text></g><!--link StateCommandResult to WorkOrder--><g class="link" data-entity-1="ent0007" data-entity-2="ent0012" data-link-type="dependency" data-source-line="54" id="lnk16"><path codeLine="54" d="M155.4733,305.8117 C156.1067,335.8183 159.6067,377.4983 172.2467,411.805 C174.8067,418.765 176.7003,422.4292 180.8937,428.2692" fill="none" id="StateCommandResult-to-WorkOrder" style="stroke:#666666;stroke-width:0.6667;"/><polygon fill="#666666" points="183.2267,431.5183,181.8933,425.0893,181.2825,428.8107,177.561,428.1999,183.2267,431.5183" style="stroke:#666666;stroke-width:0.6667;"/><text fill="#666666" font-family="sans-serif" font-size="8" lengthAdjust="spacing" textLength="33.8633" x="172.9133" y="409.8974">contains</text></g><g class="footer" data-source-line="56"><text fill="#888888" font-family="sans-serif" font-size="6.6667" lengthAdjust="spacing" textLength="153.4115" x="273.1084" y="473.9932">C4 Architecture: Class Diagram &#8212; Commands</text></g><?plantuml-src hLJRRjD047tVhrYUI8LSS-bJL0MrReGYaHArQNb4u_NKNbZlHZFhq8eYyH5y8L_2-fB68cvKeVh9cZapvynbXnKOb6_ZTqAXzKYoGCYGX0nVSYHFI1NQe_8LuLX-TlHDVgBWbvTtxB6KVtxzbfSUFCfO9guimMOiq6PT5l52MsMg32ioil1-nUCu9lX-c6jVL6d5ICe5MkiFbIlZ2ws0CdUkSOKcJewYXG7hh-OVOqA3m1Y_YLu7-vT0jNAs3bjLfH72Qn-gs9N7ZJJL2PEZxa-wz6keYG-4W9GzWV9I6M1kQ-aAEGs4ylYOK3dA9XFv8pJbLStHKhJjQFvhHr8H1K5NtBYcvSguEyJQq-HS4bZMNZixNGTOWCo6xE_hWAtj6YbT47BmBD46EUDG4ccR3y201p0Vq9zYhctDLV7eeA-wjNMegStsOsPy3KPdZJjrpjIsENXL86_QUWxbbhsFczwYgZoEcbdVriNt-voqrZfWxNGcVWhH3GFMU4PmuplWpZ3-Cs-JS-bEc7LkCNlcx9kqIpUp2t9v61yFKZn4R75BLs-smGUMvnBL1rqWLyO_VREVk8vdc5RvF1G1USyH5BpiBiJcyMbR86aFLg7O6N4KtKzsNg5uP6B3u7q368xODu3XY51Ke75AGzqN5Zjt8uecijzHjq8A49RE3eCt5oDWUwT430pktzJrAe0E8ZOd_COv_zW9JzeNe24dQCzt_sotaNy1?></g></svg>